<mxfile host="Electron" agent="Mozilla/5.0 (Windows NT 10.0; Win64; x64) AppleWebKit/537.36 (KHTML, like Gecko) draw.io/24.7.17 Chrome/128.0.6613.36 Electron/32.0.1 Safari/537.36" version="24.7.17">
  <diagram name="第 1 页" id="034YDB4wfD8Zi61Winee">
    <mxGraphModel dx="1420" dy="822" grid="1" gridSize="10" guides="1" tooltips="1" connect="1" arrows="1" fold="1" page="0" pageScale="1" pageWidth="1400" pageHeight="850" math="0" shadow="0">
      <root>
        <mxCell id="0" />
        <mxCell id="1" parent="0" />
        <mxCell id="Vby_wplITrG2B5T74BE5-406" value="" style="rounded=0;whiteSpace=wrap;html=1;fontFamily=宋体;fontSize=17;fontColor=default;labelBackgroundColor=default;fillColor=none;" parent="1" vertex="1">
          <mxGeometry x="120" y="560" width="760" height="250" as="geometry" />
        </mxCell>
        <mxCell id="Vby_wplITrG2B5T74BE5-405" value="" style="rounded=0;whiteSpace=wrap;html=1;fontFamily=宋体;fontSize=17;fontColor=default;labelBackgroundColor=default;fillColor=none;" parent="1" vertex="1">
          <mxGeometry x="160" y="180" width="760" height="260" as="geometry" />
        </mxCell>
        <mxCell id="Vby_wplITrG2B5T74BE5-93" value="" style="group;movable=1;resizable=1;rotatable=1;deletable=1;editable=1;locked=0;connectable=1;fontSize=14;" parent="1" vertex="1" connectable="0">
          <mxGeometry x="180" y="210" width="100" height="100" as="geometry" />
        </mxCell>
        <mxCell id="Vby_wplITrG2B5T74BE5-88" value="" style="whiteSpace=wrap;html=1;aspect=fixed;align=left;movable=1;resizable=1;rotatable=1;deletable=1;editable=1;locked=0;connectable=1;fontSize=17;fontFamily=宋体;" parent="Vby_wplITrG2B5T74BE5-93" vertex="1">
          <mxGeometry width="80" height="80" as="geometry" />
        </mxCell>
        <mxCell id="Vby_wplITrG2B5T74BE5-92" value="&lt;font style=&quot;font-size: 14px;&quot;&gt;R&lt;/font&gt;" style="text;html=1;align=center;verticalAlign=middle;whiteSpace=wrap;rounded=0;movable=1;resizable=1;rotatable=1;deletable=1;editable=1;locked=0;connectable=1;fontSize=14;fontFamily=Helvetica;" parent="Vby_wplITrG2B5T74BE5-93" vertex="1">
          <mxGeometry width="10" height="10" as="geometry" />
        </mxCell>
        <mxCell id="Vby_wplITrG2B5T74BE5-97" value="" style="group;movable=1;resizable=1;rotatable=1;deletable=1;editable=1;locked=0;connectable=1;fontSize=14;" parent="Vby_wplITrG2B5T74BE5-93" vertex="1" connectable="0">
          <mxGeometry x="10" y="10" width="90" height="90" as="geometry" />
        </mxCell>
        <mxCell id="Vby_wplITrG2B5T74BE5-98" value="" style="whiteSpace=wrap;html=1;aspect=fixed;align=left;movable=1;resizable=1;rotatable=1;deletable=1;editable=1;locked=0;connectable=1;fontSize=17;fontFamily=宋体;" parent="Vby_wplITrG2B5T74BE5-97" vertex="1">
          <mxGeometry width="80" height="80" as="geometry" />
        </mxCell>
        <mxCell id="Vby_wplITrG2B5T74BE5-99" value="&lt;span style=&quot;font-size: 14px;&quot;&gt;G&lt;/span&gt;" style="text;html=1;align=center;verticalAlign=middle;whiteSpace=wrap;rounded=0;movable=1;resizable=1;rotatable=1;deletable=1;editable=1;locked=0;connectable=1;fontSize=14;fontFamily=Helvetica;" parent="Vby_wplITrG2B5T74BE5-97" vertex="1">
          <mxGeometry width="10" height="10" as="geometry" />
        </mxCell>
        <mxCell id="Vby_wplITrG2B5T74BE5-94" value="" style="group;movable=1;resizable=1;rotatable=1;deletable=1;editable=1;locked=0;connectable=1;fontSize=14;" parent="Vby_wplITrG2B5T74BE5-97" vertex="1" connectable="0">
          <mxGeometry x="10" y="10" width="80" height="80" as="geometry" />
        </mxCell>
        <mxCell id="Vby_wplITrG2B5T74BE5-95" value="" style="whiteSpace=wrap;html=1;aspect=fixed;align=left;movable=1;resizable=1;rotatable=1;deletable=1;editable=1;locked=0;connectable=1;fontSize=17;fontFamily=宋体;" parent="Vby_wplITrG2B5T74BE5-94" vertex="1">
          <mxGeometry width="80" height="80" as="geometry" />
        </mxCell>
        <mxCell id="Vby_wplITrG2B5T74BE5-96" value="&lt;span style=&quot;font-size: 14px;&quot;&gt;B&lt;/span&gt;" style="text;html=1;align=center;verticalAlign=middle;whiteSpace=wrap;rounded=0;movable=1;resizable=1;rotatable=1;deletable=1;editable=1;locked=0;connectable=1;fontSize=14;fontFamily=Helvetica;" parent="Vby_wplITrG2B5T74BE5-94" vertex="1">
          <mxGeometry width="10" height="10" as="geometry" />
        </mxCell>
        <mxCell id="Vby_wplITrG2B5T74BE5-111" style="edgeStyle=orthogonalEdgeStyle;shape=connector;rounded=0;orthogonalLoop=1;jettySize=auto;html=1;exitX=1;exitY=0.5;exitDx=0;exitDy=0;strokeColor=default;align=center;verticalAlign=middle;fontFamily=宋体;fontSize=17;fontColor=default;labelBackgroundColor=default;endArrow=block;endFill=1;" parent="1" source="Vby_wplITrG2B5T74BE5-109" edge="1">
          <mxGeometry relative="1" as="geometry">
            <mxPoint x="480" y="260" as="targetPoint" />
          </mxGeometry>
        </mxCell>
        <mxCell id="Vby_wplITrG2B5T74BE5-113" style="edgeStyle=orthogonalEdgeStyle;shape=connector;rounded=0;orthogonalLoop=1;jettySize=auto;html=1;exitX=0;exitY=0.5;exitDx=0;exitDy=0;strokeColor=default;align=center;verticalAlign=middle;fontFamily=宋体;fontSize=17;fontColor=default;labelBackgroundColor=default;endArrow=none;endFill=0;startArrow=block;startFill=1;" parent="1" source="Vby_wplITrG2B5T74BE5-109" edge="1">
          <mxGeometry relative="1" as="geometry">
            <mxPoint x="281" y="260" as="targetPoint" />
          </mxGeometry>
        </mxCell>
        <mxCell id="Vby_wplITrG2B5T74BE5-109" value="色彩空间变换" style="rounded=0;whiteSpace=wrap;html=1;fontSize=17;fontFamily=宋体;" parent="1" vertex="1">
          <mxGeometry x="320" y="240" width="120" height="40" as="geometry" />
        </mxCell>
        <mxCell id="Vby_wplITrG2B5T74BE5-131" value="" style="group;fontSize=17;fontFamily=宋体;" parent="1" vertex="1" connectable="0">
          <mxGeometry x="480" y="210" width="100" height="130" as="geometry" />
        </mxCell>
        <mxCell id="Vby_wplITrG2B5T74BE5-115" value="" style="group;fontSize=17;fontFamily=宋体;" parent="Vby_wplITrG2B5T74BE5-131" vertex="1" connectable="0">
          <mxGeometry width="100" height="101" as="geometry" />
        </mxCell>
        <mxCell id="Vby_wplITrG2B5T74BE5-89" value="" style="whiteSpace=wrap;html=1;aspect=fixed;fillColor=#eeeeee;strokeColor=#36393d;fontSize=17;fontFamily=宋体;" parent="Vby_wplITrG2B5T74BE5-115" vertex="1">
          <mxGeometry width="80" height="80" as="geometry" />
        </mxCell>
        <mxCell id="Vby_wplITrG2B5T74BE5-90" value="" style="whiteSpace=wrap;html=1;aspect=fixed;fillColor=#eeeeee;strokeColor=#36393d;fontSize=17;fontFamily=宋体;" parent="Vby_wplITrG2B5T74BE5-115" vertex="1">
          <mxGeometry x="10" y="11" width="80" height="80" as="geometry" />
        </mxCell>
        <mxCell id="Vby_wplITrG2B5T74BE5-15" value="" style="shape=table;startSize=0;container=1;collapsible=0;childLayout=tableLayout;fontSize=17;fontFamily=宋体;" parent="Vby_wplITrG2B5T74BE5-115" vertex="1">
          <mxGeometry x="20" y="21" width="80" height="80" as="geometry" />
        </mxCell>
        <mxCell id="Vby_wplITrG2B5T74BE5-16" value="" style="shape=tableRow;horizontal=0;startSize=0;swimlaneHead=0;swimlaneBody=0;strokeColor=inherit;top=0;left=0;bottom=0;right=0;collapsible=0;dropTarget=0;fillColor=none;points=[[0,0.5],[1,0.5]];portConstraint=eastwest;fontSize=17;fontFamily=宋体;" parent="Vby_wplITrG2B5T74BE5-15" vertex="1">
          <mxGeometry width="80" height="10" as="geometry" />
        </mxCell>
        <mxCell id="Vby_wplITrG2B5T74BE5-17" value="" style="shape=partialRectangle;html=1;whiteSpace=wrap;connectable=0;strokeColor=inherit;overflow=hidden;fillColor=none;top=0;left=0;bottom=0;right=0;pointerEvents=1;fontSize=17;fontFamily=宋体;" parent="Vby_wplITrG2B5T74BE5-16" vertex="1">
          <mxGeometry width="10" height="10" as="geometry">
            <mxRectangle width="10" height="10" as="alternateBounds" />
          </mxGeometry>
        </mxCell>
        <mxCell id="Vby_wplITrG2B5T74BE5-18" value="" style="shape=partialRectangle;html=1;whiteSpace=wrap;connectable=0;strokeColor=inherit;overflow=hidden;fillColor=none;top=0;left=0;bottom=0;right=0;pointerEvents=1;fontSize=17;fontFamily=宋体;" parent="Vby_wplITrG2B5T74BE5-16" vertex="1">
          <mxGeometry x="10" width="10" height="10" as="geometry">
            <mxRectangle width="10" height="10" as="alternateBounds" />
          </mxGeometry>
        </mxCell>
        <mxCell id="Vby_wplITrG2B5T74BE5-19" value="" style="shape=partialRectangle;html=1;whiteSpace=wrap;connectable=0;strokeColor=inherit;overflow=hidden;fillColor=none;top=0;left=0;bottom=0;right=0;pointerEvents=1;fontSize=17;fontFamily=宋体;" parent="Vby_wplITrG2B5T74BE5-16" vertex="1">
          <mxGeometry x="20" width="10" height="10" as="geometry">
            <mxRectangle width="10" height="10" as="alternateBounds" />
          </mxGeometry>
        </mxCell>
        <mxCell id="Vby_wplITrG2B5T74BE5-20" value="" style="shape=partialRectangle;html=1;whiteSpace=wrap;connectable=0;strokeColor=inherit;overflow=hidden;fillColor=none;top=0;left=0;bottom=0;right=0;pointerEvents=1;fontSize=17;fontFamily=宋体;" parent="Vby_wplITrG2B5T74BE5-16" vertex="1">
          <mxGeometry x="30" width="10" height="10" as="geometry">
            <mxRectangle width="10" height="10" as="alternateBounds" />
          </mxGeometry>
        </mxCell>
        <mxCell id="Vby_wplITrG2B5T74BE5-21" value="" style="shape=partialRectangle;html=1;whiteSpace=wrap;connectable=0;strokeColor=inherit;overflow=hidden;fillColor=none;top=0;left=0;bottom=0;right=0;pointerEvents=1;fontSize=17;fontFamily=宋体;" parent="Vby_wplITrG2B5T74BE5-16" vertex="1">
          <mxGeometry x="40" width="10" height="10" as="geometry">
            <mxRectangle width="10" height="10" as="alternateBounds" />
          </mxGeometry>
        </mxCell>
        <mxCell id="Vby_wplITrG2B5T74BE5-22" value="" style="shape=partialRectangle;html=1;whiteSpace=wrap;connectable=0;strokeColor=inherit;overflow=hidden;fillColor=none;top=0;left=0;bottom=0;right=0;pointerEvents=1;fontSize=17;fontFamily=宋体;" parent="Vby_wplITrG2B5T74BE5-16" vertex="1">
          <mxGeometry x="50" width="10" height="10" as="geometry">
            <mxRectangle width="10" height="10" as="alternateBounds" />
          </mxGeometry>
        </mxCell>
        <mxCell id="Vby_wplITrG2B5T74BE5-23" value="" style="shape=partialRectangle;html=1;whiteSpace=wrap;connectable=0;strokeColor=inherit;overflow=hidden;fillColor=none;top=0;left=0;bottom=0;right=0;pointerEvents=1;fontSize=17;fontFamily=宋体;" parent="Vby_wplITrG2B5T74BE5-16" vertex="1">
          <mxGeometry x="60" width="10" height="10" as="geometry">
            <mxRectangle width="10" height="10" as="alternateBounds" />
          </mxGeometry>
        </mxCell>
        <mxCell id="Vby_wplITrG2B5T74BE5-24" value="" style="shape=partialRectangle;html=1;whiteSpace=wrap;connectable=0;strokeColor=inherit;overflow=hidden;fillColor=none;top=0;left=0;bottom=0;right=0;pointerEvents=1;fontSize=17;fontFamily=宋体;" parent="Vby_wplITrG2B5T74BE5-16" vertex="1">
          <mxGeometry x="70" width="10" height="10" as="geometry">
            <mxRectangle width="10" height="10" as="alternateBounds" />
          </mxGeometry>
        </mxCell>
        <mxCell id="Vby_wplITrG2B5T74BE5-25" value="" style="shape=tableRow;horizontal=0;startSize=0;swimlaneHead=0;swimlaneBody=0;strokeColor=inherit;top=0;left=0;bottom=0;right=0;collapsible=0;dropTarget=0;fillColor=none;points=[[0,0.5],[1,0.5]];portConstraint=eastwest;fontSize=17;fontFamily=宋体;" parent="Vby_wplITrG2B5T74BE5-15" vertex="1">
          <mxGeometry y="10" width="80" height="10" as="geometry" />
        </mxCell>
        <mxCell id="Vby_wplITrG2B5T74BE5-26" value="" style="shape=partialRectangle;html=1;whiteSpace=wrap;connectable=0;strokeColor=inherit;overflow=hidden;fillColor=none;top=0;left=0;bottom=0;right=0;pointerEvents=1;fontSize=17;fontFamily=宋体;" parent="Vby_wplITrG2B5T74BE5-25" vertex="1">
          <mxGeometry width="10" height="10" as="geometry">
            <mxRectangle width="10" height="10" as="alternateBounds" />
          </mxGeometry>
        </mxCell>
        <mxCell id="Vby_wplITrG2B5T74BE5-27" value="" style="shape=partialRectangle;html=1;whiteSpace=wrap;connectable=0;strokeColor=inherit;overflow=hidden;fillColor=none;top=0;left=0;bottom=0;right=0;pointerEvents=1;fontSize=17;fontFamily=宋体;" parent="Vby_wplITrG2B5T74BE5-25" vertex="1">
          <mxGeometry x="10" width="10" height="10" as="geometry">
            <mxRectangle width="10" height="10" as="alternateBounds" />
          </mxGeometry>
        </mxCell>
        <mxCell id="Vby_wplITrG2B5T74BE5-28" value="" style="shape=partialRectangle;html=1;whiteSpace=wrap;connectable=0;strokeColor=inherit;overflow=hidden;fillColor=none;top=0;left=0;bottom=0;right=0;pointerEvents=1;fontSize=17;fontFamily=宋体;" parent="Vby_wplITrG2B5T74BE5-25" vertex="1">
          <mxGeometry x="20" width="10" height="10" as="geometry">
            <mxRectangle width="10" height="10" as="alternateBounds" />
          </mxGeometry>
        </mxCell>
        <mxCell id="Vby_wplITrG2B5T74BE5-29" value="" style="shape=partialRectangle;html=1;whiteSpace=wrap;connectable=0;strokeColor=inherit;overflow=hidden;fillColor=none;top=0;left=0;bottom=0;right=0;pointerEvents=1;fontSize=17;fontFamily=宋体;" parent="Vby_wplITrG2B5T74BE5-25" vertex="1">
          <mxGeometry x="30" width="10" height="10" as="geometry">
            <mxRectangle width="10" height="10" as="alternateBounds" />
          </mxGeometry>
        </mxCell>
        <mxCell id="Vby_wplITrG2B5T74BE5-30" value="" style="shape=partialRectangle;html=1;whiteSpace=wrap;connectable=0;strokeColor=inherit;overflow=hidden;fillColor=none;top=0;left=0;bottom=0;right=0;pointerEvents=1;fontSize=17;fontFamily=宋体;" parent="Vby_wplITrG2B5T74BE5-25" vertex="1">
          <mxGeometry x="40" width="10" height="10" as="geometry">
            <mxRectangle width="10" height="10" as="alternateBounds" />
          </mxGeometry>
        </mxCell>
        <mxCell id="Vby_wplITrG2B5T74BE5-31" value="" style="shape=partialRectangle;html=1;whiteSpace=wrap;connectable=0;strokeColor=inherit;overflow=hidden;fillColor=none;top=0;left=0;bottom=0;right=0;pointerEvents=1;fontSize=17;fontFamily=宋体;" parent="Vby_wplITrG2B5T74BE5-25" vertex="1">
          <mxGeometry x="50" width="10" height="10" as="geometry">
            <mxRectangle width="10" height="10" as="alternateBounds" />
          </mxGeometry>
        </mxCell>
        <mxCell id="Vby_wplITrG2B5T74BE5-32" value="" style="shape=partialRectangle;html=1;whiteSpace=wrap;connectable=0;strokeColor=inherit;overflow=hidden;fillColor=none;top=0;left=0;bottom=0;right=0;pointerEvents=1;fontSize=17;fontFamily=宋体;" parent="Vby_wplITrG2B5T74BE5-25" vertex="1">
          <mxGeometry x="60" width="10" height="10" as="geometry">
            <mxRectangle width="10" height="10" as="alternateBounds" />
          </mxGeometry>
        </mxCell>
        <mxCell id="Vby_wplITrG2B5T74BE5-33" value="" style="shape=partialRectangle;html=1;whiteSpace=wrap;connectable=0;strokeColor=inherit;overflow=hidden;fillColor=none;top=0;left=0;bottom=0;right=0;pointerEvents=1;fontSize=17;fontFamily=宋体;" parent="Vby_wplITrG2B5T74BE5-25" vertex="1">
          <mxGeometry x="70" width="10" height="10" as="geometry">
            <mxRectangle width="10" height="10" as="alternateBounds" />
          </mxGeometry>
        </mxCell>
        <mxCell id="Vby_wplITrG2B5T74BE5-34" value="" style="shape=tableRow;horizontal=0;startSize=0;swimlaneHead=0;swimlaneBody=0;strokeColor=inherit;top=0;left=0;bottom=0;right=0;collapsible=0;dropTarget=0;fillColor=none;points=[[0,0.5],[1,0.5]];portConstraint=eastwest;fontSize=17;fontFamily=宋体;" parent="Vby_wplITrG2B5T74BE5-15" vertex="1">
          <mxGeometry y="20" width="80" height="10" as="geometry" />
        </mxCell>
        <mxCell id="Vby_wplITrG2B5T74BE5-35" value="" style="shape=partialRectangle;html=1;whiteSpace=wrap;connectable=0;strokeColor=inherit;overflow=hidden;fillColor=none;top=0;left=0;bottom=0;right=0;pointerEvents=1;fontSize=17;fontFamily=宋体;" parent="Vby_wplITrG2B5T74BE5-34" vertex="1">
          <mxGeometry width="10" height="10" as="geometry">
            <mxRectangle width="10" height="10" as="alternateBounds" />
          </mxGeometry>
        </mxCell>
        <mxCell id="Vby_wplITrG2B5T74BE5-36" value="" style="shape=partialRectangle;html=1;whiteSpace=wrap;connectable=0;strokeColor=inherit;overflow=hidden;fillColor=none;top=0;left=0;bottom=0;right=0;pointerEvents=1;fontSize=17;fontFamily=宋体;" parent="Vby_wplITrG2B5T74BE5-34" vertex="1">
          <mxGeometry x="10" width="10" height="10" as="geometry">
            <mxRectangle width="10" height="10" as="alternateBounds" />
          </mxGeometry>
        </mxCell>
        <mxCell id="Vby_wplITrG2B5T74BE5-37" value="" style="shape=partialRectangle;html=1;whiteSpace=wrap;connectable=0;strokeColor=inherit;overflow=hidden;fillColor=none;top=0;left=0;bottom=0;right=0;pointerEvents=1;fontSize=17;fontFamily=宋体;" parent="Vby_wplITrG2B5T74BE5-34" vertex="1">
          <mxGeometry x="20" width="10" height="10" as="geometry">
            <mxRectangle width="10" height="10" as="alternateBounds" />
          </mxGeometry>
        </mxCell>
        <mxCell id="Vby_wplITrG2B5T74BE5-38" value="" style="shape=partialRectangle;html=1;whiteSpace=wrap;connectable=0;strokeColor=inherit;overflow=hidden;fillColor=none;top=0;left=0;bottom=0;right=0;pointerEvents=1;fontSize=17;fontFamily=宋体;" parent="Vby_wplITrG2B5T74BE5-34" vertex="1">
          <mxGeometry x="30" width="10" height="10" as="geometry">
            <mxRectangle width="10" height="10" as="alternateBounds" />
          </mxGeometry>
        </mxCell>
        <mxCell id="Vby_wplITrG2B5T74BE5-39" value="" style="shape=partialRectangle;html=1;whiteSpace=wrap;connectable=0;strokeColor=inherit;overflow=hidden;fillColor=none;top=0;left=0;bottom=0;right=0;pointerEvents=1;fontSize=17;fontFamily=宋体;" parent="Vby_wplITrG2B5T74BE5-34" vertex="1">
          <mxGeometry x="40" width="10" height="10" as="geometry">
            <mxRectangle width="10" height="10" as="alternateBounds" />
          </mxGeometry>
        </mxCell>
        <mxCell id="Vby_wplITrG2B5T74BE5-40" value="" style="shape=partialRectangle;html=1;whiteSpace=wrap;connectable=0;strokeColor=inherit;overflow=hidden;fillColor=none;top=0;left=0;bottom=0;right=0;pointerEvents=1;fontSize=17;fontFamily=宋体;" parent="Vby_wplITrG2B5T74BE5-34" vertex="1">
          <mxGeometry x="50" width="10" height="10" as="geometry">
            <mxRectangle width="10" height="10" as="alternateBounds" />
          </mxGeometry>
        </mxCell>
        <mxCell id="Vby_wplITrG2B5T74BE5-41" value="" style="shape=partialRectangle;html=1;whiteSpace=wrap;connectable=0;strokeColor=inherit;overflow=hidden;fillColor=none;top=0;left=0;bottom=0;right=0;pointerEvents=1;fontSize=17;fontFamily=宋体;" parent="Vby_wplITrG2B5T74BE5-34" vertex="1">
          <mxGeometry x="60" width="10" height="10" as="geometry">
            <mxRectangle width="10" height="10" as="alternateBounds" />
          </mxGeometry>
        </mxCell>
        <mxCell id="Vby_wplITrG2B5T74BE5-42" value="" style="shape=partialRectangle;html=1;whiteSpace=wrap;connectable=0;strokeColor=inherit;overflow=hidden;fillColor=none;top=0;left=0;bottom=0;right=0;pointerEvents=1;fontSize=17;fontFamily=宋体;" parent="Vby_wplITrG2B5T74BE5-34" vertex="1">
          <mxGeometry x="70" width="10" height="10" as="geometry">
            <mxRectangle width="10" height="10" as="alternateBounds" />
          </mxGeometry>
        </mxCell>
        <mxCell id="Vby_wplITrG2B5T74BE5-43" value="" style="shape=tableRow;horizontal=0;startSize=0;swimlaneHead=0;swimlaneBody=0;strokeColor=inherit;top=0;left=0;bottom=0;right=0;collapsible=0;dropTarget=0;fillColor=none;points=[[0,0.5],[1,0.5]];portConstraint=eastwest;fontSize=17;fontFamily=宋体;" parent="Vby_wplITrG2B5T74BE5-15" vertex="1">
          <mxGeometry y="30" width="80" height="10" as="geometry" />
        </mxCell>
        <mxCell id="Vby_wplITrG2B5T74BE5-44" value="" style="shape=partialRectangle;html=1;whiteSpace=wrap;connectable=0;strokeColor=inherit;overflow=hidden;fillColor=none;top=0;left=0;bottom=0;right=0;pointerEvents=1;fontSize=17;fontFamily=宋体;" parent="Vby_wplITrG2B5T74BE5-43" vertex="1">
          <mxGeometry width="10" height="10" as="geometry">
            <mxRectangle width="10" height="10" as="alternateBounds" />
          </mxGeometry>
        </mxCell>
        <mxCell id="Vby_wplITrG2B5T74BE5-45" value="" style="shape=partialRectangle;html=1;whiteSpace=wrap;connectable=0;strokeColor=inherit;overflow=hidden;fillColor=none;top=0;left=0;bottom=0;right=0;pointerEvents=1;fontSize=17;fontFamily=宋体;" parent="Vby_wplITrG2B5T74BE5-43" vertex="1">
          <mxGeometry x="10" width="10" height="10" as="geometry">
            <mxRectangle width="10" height="10" as="alternateBounds" />
          </mxGeometry>
        </mxCell>
        <mxCell id="Vby_wplITrG2B5T74BE5-46" value="" style="shape=partialRectangle;html=1;whiteSpace=wrap;connectable=0;strokeColor=inherit;overflow=hidden;fillColor=none;top=0;left=0;bottom=0;right=0;pointerEvents=1;fontSize=17;fontFamily=宋体;" parent="Vby_wplITrG2B5T74BE5-43" vertex="1">
          <mxGeometry x="20" width="10" height="10" as="geometry">
            <mxRectangle width="10" height="10" as="alternateBounds" />
          </mxGeometry>
        </mxCell>
        <mxCell id="Vby_wplITrG2B5T74BE5-47" value="" style="shape=partialRectangle;html=1;whiteSpace=wrap;connectable=0;strokeColor=inherit;overflow=hidden;fillColor=none;top=0;left=0;bottom=0;right=0;pointerEvents=1;fontSize=17;fontFamily=宋体;" parent="Vby_wplITrG2B5T74BE5-43" vertex="1">
          <mxGeometry x="30" width="10" height="10" as="geometry">
            <mxRectangle width="10" height="10" as="alternateBounds" />
          </mxGeometry>
        </mxCell>
        <mxCell id="Vby_wplITrG2B5T74BE5-48" value="" style="shape=partialRectangle;html=1;whiteSpace=wrap;connectable=0;strokeColor=inherit;overflow=hidden;fillColor=none;top=0;left=0;bottom=0;right=0;pointerEvents=1;fontSize=17;fontFamily=宋体;" parent="Vby_wplITrG2B5T74BE5-43" vertex="1">
          <mxGeometry x="40" width="10" height="10" as="geometry">
            <mxRectangle width="10" height="10" as="alternateBounds" />
          </mxGeometry>
        </mxCell>
        <mxCell id="Vby_wplITrG2B5T74BE5-49" value="" style="shape=partialRectangle;html=1;whiteSpace=wrap;connectable=0;strokeColor=inherit;overflow=hidden;fillColor=none;top=0;left=0;bottom=0;right=0;pointerEvents=1;fontSize=17;fontFamily=宋体;" parent="Vby_wplITrG2B5T74BE5-43" vertex="1">
          <mxGeometry x="50" width="10" height="10" as="geometry">
            <mxRectangle width="10" height="10" as="alternateBounds" />
          </mxGeometry>
        </mxCell>
        <mxCell id="Vby_wplITrG2B5T74BE5-50" value="" style="shape=partialRectangle;html=1;whiteSpace=wrap;connectable=0;strokeColor=inherit;overflow=hidden;fillColor=none;top=0;left=0;bottom=0;right=0;pointerEvents=1;fontSize=17;fontFamily=宋体;" parent="Vby_wplITrG2B5T74BE5-43" vertex="1">
          <mxGeometry x="60" width="10" height="10" as="geometry">
            <mxRectangle width="10" height="10" as="alternateBounds" />
          </mxGeometry>
        </mxCell>
        <mxCell id="Vby_wplITrG2B5T74BE5-51" value="" style="shape=partialRectangle;html=1;whiteSpace=wrap;connectable=0;strokeColor=inherit;overflow=hidden;fillColor=none;top=0;left=0;bottom=0;right=0;pointerEvents=1;fontSize=17;fontFamily=宋体;" parent="Vby_wplITrG2B5T74BE5-43" vertex="1">
          <mxGeometry x="70" width="10" height="10" as="geometry">
            <mxRectangle width="10" height="10" as="alternateBounds" />
          </mxGeometry>
        </mxCell>
        <mxCell id="Vby_wplITrG2B5T74BE5-52" value="" style="shape=tableRow;horizontal=0;startSize=0;swimlaneHead=0;swimlaneBody=0;strokeColor=inherit;top=0;left=0;bottom=0;right=0;collapsible=0;dropTarget=0;fillColor=none;points=[[0,0.5],[1,0.5]];portConstraint=eastwest;fontSize=17;fontFamily=宋体;" parent="Vby_wplITrG2B5T74BE5-15" vertex="1">
          <mxGeometry y="40" width="80" height="10" as="geometry" />
        </mxCell>
        <mxCell id="Vby_wplITrG2B5T74BE5-53" value="" style="shape=partialRectangle;html=1;whiteSpace=wrap;connectable=0;strokeColor=inherit;overflow=hidden;fillColor=none;top=0;left=0;bottom=0;right=0;pointerEvents=1;fontSize=17;fontFamily=宋体;" parent="Vby_wplITrG2B5T74BE5-52" vertex="1">
          <mxGeometry width="10" height="10" as="geometry">
            <mxRectangle width="10" height="10" as="alternateBounds" />
          </mxGeometry>
        </mxCell>
        <mxCell id="Vby_wplITrG2B5T74BE5-54" value="" style="shape=partialRectangle;html=1;whiteSpace=wrap;connectable=0;strokeColor=inherit;overflow=hidden;fillColor=none;top=0;left=0;bottom=0;right=0;pointerEvents=1;fontSize=17;fontFamily=宋体;" parent="Vby_wplITrG2B5T74BE5-52" vertex="1">
          <mxGeometry x="10" width="10" height="10" as="geometry">
            <mxRectangle width="10" height="10" as="alternateBounds" />
          </mxGeometry>
        </mxCell>
        <mxCell id="Vby_wplITrG2B5T74BE5-55" value="" style="shape=partialRectangle;html=1;whiteSpace=wrap;connectable=0;strokeColor=inherit;overflow=hidden;fillColor=none;top=0;left=0;bottom=0;right=0;pointerEvents=1;fontSize=17;fontFamily=宋体;" parent="Vby_wplITrG2B5T74BE5-52" vertex="1">
          <mxGeometry x="20" width="10" height="10" as="geometry">
            <mxRectangle width="10" height="10" as="alternateBounds" />
          </mxGeometry>
        </mxCell>
        <mxCell id="Vby_wplITrG2B5T74BE5-56" value="" style="shape=partialRectangle;html=1;whiteSpace=wrap;connectable=0;strokeColor=inherit;overflow=hidden;fillColor=none;top=0;left=0;bottom=0;right=0;pointerEvents=1;fontSize=17;fontFamily=宋体;" parent="Vby_wplITrG2B5T74BE5-52" vertex="1">
          <mxGeometry x="30" width="10" height="10" as="geometry">
            <mxRectangle width="10" height="10" as="alternateBounds" />
          </mxGeometry>
        </mxCell>
        <mxCell id="Vby_wplITrG2B5T74BE5-57" value="" style="shape=partialRectangle;html=1;whiteSpace=wrap;connectable=0;strokeColor=inherit;overflow=hidden;fillColor=none;top=0;left=0;bottom=0;right=0;pointerEvents=1;fontSize=17;fontFamily=宋体;" parent="Vby_wplITrG2B5T74BE5-52" vertex="1">
          <mxGeometry x="40" width="10" height="10" as="geometry">
            <mxRectangle width="10" height="10" as="alternateBounds" />
          </mxGeometry>
        </mxCell>
        <mxCell id="Vby_wplITrG2B5T74BE5-58" value="" style="shape=partialRectangle;html=1;whiteSpace=wrap;connectable=0;strokeColor=inherit;overflow=hidden;fillColor=none;top=0;left=0;bottom=0;right=0;pointerEvents=1;fontSize=17;fontFamily=宋体;" parent="Vby_wplITrG2B5T74BE5-52" vertex="1">
          <mxGeometry x="50" width="10" height="10" as="geometry">
            <mxRectangle width="10" height="10" as="alternateBounds" />
          </mxGeometry>
        </mxCell>
        <mxCell id="Vby_wplITrG2B5T74BE5-59" value="" style="shape=partialRectangle;html=1;whiteSpace=wrap;connectable=0;strokeColor=inherit;overflow=hidden;fillColor=none;top=0;left=0;bottom=0;right=0;pointerEvents=1;fontSize=17;fontFamily=宋体;" parent="Vby_wplITrG2B5T74BE5-52" vertex="1">
          <mxGeometry x="60" width="10" height="10" as="geometry">
            <mxRectangle width="10" height="10" as="alternateBounds" />
          </mxGeometry>
        </mxCell>
        <mxCell id="Vby_wplITrG2B5T74BE5-60" value="" style="shape=partialRectangle;html=1;whiteSpace=wrap;connectable=0;strokeColor=inherit;overflow=hidden;fillColor=none;top=0;left=0;bottom=0;right=0;pointerEvents=1;fontSize=17;fontFamily=宋体;" parent="Vby_wplITrG2B5T74BE5-52" vertex="1">
          <mxGeometry x="70" width="10" height="10" as="geometry">
            <mxRectangle width="10" height="10" as="alternateBounds" />
          </mxGeometry>
        </mxCell>
        <mxCell id="Vby_wplITrG2B5T74BE5-61" value="" style="shape=tableRow;horizontal=0;startSize=0;swimlaneHead=0;swimlaneBody=0;strokeColor=inherit;top=0;left=0;bottom=0;right=0;collapsible=0;dropTarget=0;fillColor=none;points=[[0,0.5],[1,0.5]];portConstraint=eastwest;fontSize=17;fontFamily=宋体;" parent="Vby_wplITrG2B5T74BE5-15" vertex="1">
          <mxGeometry y="50" width="80" height="10" as="geometry" />
        </mxCell>
        <mxCell id="Vby_wplITrG2B5T74BE5-62" value="" style="shape=partialRectangle;html=1;whiteSpace=wrap;connectable=0;strokeColor=inherit;overflow=hidden;fillColor=none;top=0;left=0;bottom=0;right=0;pointerEvents=1;fontSize=17;fontFamily=宋体;" parent="Vby_wplITrG2B5T74BE5-61" vertex="1">
          <mxGeometry width="10" height="10" as="geometry">
            <mxRectangle width="10" height="10" as="alternateBounds" />
          </mxGeometry>
        </mxCell>
        <mxCell id="Vby_wplITrG2B5T74BE5-63" value="" style="shape=partialRectangle;html=1;whiteSpace=wrap;connectable=0;strokeColor=inherit;overflow=hidden;fillColor=none;top=0;left=0;bottom=0;right=0;pointerEvents=1;fontSize=17;fontFamily=宋体;" parent="Vby_wplITrG2B5T74BE5-61" vertex="1">
          <mxGeometry x="10" width="10" height="10" as="geometry">
            <mxRectangle width="10" height="10" as="alternateBounds" />
          </mxGeometry>
        </mxCell>
        <mxCell id="Vby_wplITrG2B5T74BE5-64" value="" style="shape=partialRectangle;html=1;whiteSpace=wrap;connectable=0;strokeColor=inherit;overflow=hidden;fillColor=none;top=0;left=0;bottom=0;right=0;pointerEvents=1;fontSize=17;fontFamily=宋体;" parent="Vby_wplITrG2B5T74BE5-61" vertex="1">
          <mxGeometry x="20" width="10" height="10" as="geometry">
            <mxRectangle width="10" height="10" as="alternateBounds" />
          </mxGeometry>
        </mxCell>
        <mxCell id="Vby_wplITrG2B5T74BE5-65" value="" style="shape=partialRectangle;html=1;whiteSpace=wrap;connectable=0;strokeColor=inherit;overflow=hidden;fillColor=none;top=0;left=0;bottom=0;right=0;pointerEvents=1;fontSize=17;fontFamily=宋体;" parent="Vby_wplITrG2B5T74BE5-61" vertex="1">
          <mxGeometry x="30" width="10" height="10" as="geometry">
            <mxRectangle width="10" height="10" as="alternateBounds" />
          </mxGeometry>
        </mxCell>
        <mxCell id="Vby_wplITrG2B5T74BE5-66" value="" style="shape=partialRectangle;html=1;whiteSpace=wrap;connectable=0;strokeColor=inherit;overflow=hidden;fillColor=none;top=0;left=0;bottom=0;right=0;pointerEvents=1;fontSize=17;fontFamily=宋体;" parent="Vby_wplITrG2B5T74BE5-61" vertex="1">
          <mxGeometry x="40" width="10" height="10" as="geometry">
            <mxRectangle width="10" height="10" as="alternateBounds" />
          </mxGeometry>
        </mxCell>
        <mxCell id="Vby_wplITrG2B5T74BE5-67" value="" style="shape=partialRectangle;html=1;whiteSpace=wrap;connectable=0;strokeColor=inherit;overflow=hidden;fillColor=none;top=0;left=0;bottom=0;right=0;pointerEvents=1;fontSize=17;fontFamily=宋体;" parent="Vby_wplITrG2B5T74BE5-61" vertex="1">
          <mxGeometry x="50" width="10" height="10" as="geometry">
            <mxRectangle width="10" height="10" as="alternateBounds" />
          </mxGeometry>
        </mxCell>
        <mxCell id="Vby_wplITrG2B5T74BE5-68" value="" style="shape=partialRectangle;html=1;whiteSpace=wrap;connectable=0;strokeColor=inherit;overflow=hidden;fillColor=none;top=0;left=0;bottom=0;right=0;pointerEvents=1;fontSize=17;fontFamily=宋体;" parent="Vby_wplITrG2B5T74BE5-61" vertex="1">
          <mxGeometry x="60" width="10" height="10" as="geometry">
            <mxRectangle width="10" height="10" as="alternateBounds" />
          </mxGeometry>
        </mxCell>
        <mxCell id="Vby_wplITrG2B5T74BE5-69" value="" style="shape=partialRectangle;html=1;whiteSpace=wrap;connectable=0;strokeColor=inherit;overflow=hidden;fillColor=none;top=0;left=0;bottom=0;right=0;pointerEvents=1;fontSize=17;fontFamily=宋体;" parent="Vby_wplITrG2B5T74BE5-61" vertex="1">
          <mxGeometry x="70" width="10" height="10" as="geometry">
            <mxRectangle width="10" height="10" as="alternateBounds" />
          </mxGeometry>
        </mxCell>
        <mxCell id="Vby_wplITrG2B5T74BE5-70" value="" style="shape=tableRow;horizontal=0;startSize=0;swimlaneHead=0;swimlaneBody=0;strokeColor=inherit;top=0;left=0;bottom=0;right=0;collapsible=0;dropTarget=0;fillColor=none;points=[[0,0.5],[1,0.5]];portConstraint=eastwest;fontSize=17;fontFamily=宋体;" parent="Vby_wplITrG2B5T74BE5-15" vertex="1">
          <mxGeometry y="60" width="80" height="10" as="geometry" />
        </mxCell>
        <mxCell id="Vby_wplITrG2B5T74BE5-71" value="" style="shape=partialRectangle;html=1;whiteSpace=wrap;connectable=0;strokeColor=inherit;overflow=hidden;fillColor=none;top=0;left=0;bottom=0;right=0;pointerEvents=1;fontSize=17;fontFamily=宋体;" parent="Vby_wplITrG2B5T74BE5-70" vertex="1">
          <mxGeometry width="10" height="10" as="geometry">
            <mxRectangle width="10" height="10" as="alternateBounds" />
          </mxGeometry>
        </mxCell>
        <mxCell id="Vby_wplITrG2B5T74BE5-72" value="" style="shape=partialRectangle;html=1;whiteSpace=wrap;connectable=0;strokeColor=inherit;overflow=hidden;fillColor=none;top=0;left=0;bottom=0;right=0;pointerEvents=1;fontSize=17;fontFamily=宋体;" parent="Vby_wplITrG2B5T74BE5-70" vertex="1">
          <mxGeometry x="10" width="10" height="10" as="geometry">
            <mxRectangle width="10" height="10" as="alternateBounds" />
          </mxGeometry>
        </mxCell>
        <mxCell id="Vby_wplITrG2B5T74BE5-73" value="" style="shape=partialRectangle;html=1;whiteSpace=wrap;connectable=0;strokeColor=inherit;overflow=hidden;fillColor=none;top=0;left=0;bottom=0;right=0;pointerEvents=1;fontSize=17;fontFamily=宋体;" parent="Vby_wplITrG2B5T74BE5-70" vertex="1">
          <mxGeometry x="20" width="10" height="10" as="geometry">
            <mxRectangle width="10" height="10" as="alternateBounds" />
          </mxGeometry>
        </mxCell>
        <mxCell id="Vby_wplITrG2B5T74BE5-74" value="" style="shape=partialRectangle;html=1;whiteSpace=wrap;connectable=0;strokeColor=inherit;overflow=hidden;fillColor=none;top=0;left=0;bottom=0;right=0;pointerEvents=1;fontSize=17;fontFamily=宋体;" parent="Vby_wplITrG2B5T74BE5-70" vertex="1">
          <mxGeometry x="30" width="10" height="10" as="geometry">
            <mxRectangle width="10" height="10" as="alternateBounds" />
          </mxGeometry>
        </mxCell>
        <mxCell id="Vby_wplITrG2B5T74BE5-75" value="" style="shape=partialRectangle;html=1;whiteSpace=wrap;connectable=0;strokeColor=inherit;overflow=hidden;fillColor=none;top=0;left=0;bottom=0;right=0;pointerEvents=1;fontSize=17;fontFamily=宋体;" parent="Vby_wplITrG2B5T74BE5-70" vertex="1">
          <mxGeometry x="40" width="10" height="10" as="geometry">
            <mxRectangle width="10" height="10" as="alternateBounds" />
          </mxGeometry>
        </mxCell>
        <mxCell id="Vby_wplITrG2B5T74BE5-76" value="" style="shape=partialRectangle;html=1;whiteSpace=wrap;connectable=0;strokeColor=inherit;overflow=hidden;fillColor=none;top=0;left=0;bottom=0;right=0;pointerEvents=1;fontSize=17;fontFamily=宋体;" parent="Vby_wplITrG2B5T74BE5-70" vertex="1">
          <mxGeometry x="50" width="10" height="10" as="geometry">
            <mxRectangle width="10" height="10" as="alternateBounds" />
          </mxGeometry>
        </mxCell>
        <mxCell id="Vby_wplITrG2B5T74BE5-77" value="" style="shape=partialRectangle;html=1;whiteSpace=wrap;connectable=0;strokeColor=inherit;overflow=hidden;fillColor=none;top=0;left=0;bottom=0;right=0;pointerEvents=1;fontSize=17;fontFamily=宋体;" parent="Vby_wplITrG2B5T74BE5-70" vertex="1">
          <mxGeometry x="60" width="10" height="10" as="geometry">
            <mxRectangle width="10" height="10" as="alternateBounds" />
          </mxGeometry>
        </mxCell>
        <mxCell id="Vby_wplITrG2B5T74BE5-78" value="" style="shape=partialRectangle;html=1;whiteSpace=wrap;connectable=0;strokeColor=inherit;overflow=hidden;fillColor=none;top=0;left=0;bottom=0;right=0;pointerEvents=1;fontSize=17;fontFamily=宋体;" parent="Vby_wplITrG2B5T74BE5-70" vertex="1">
          <mxGeometry x="70" width="10" height="10" as="geometry">
            <mxRectangle width="10" height="10" as="alternateBounds" />
          </mxGeometry>
        </mxCell>
        <mxCell id="Vby_wplITrG2B5T74BE5-79" value="" style="shape=tableRow;horizontal=0;startSize=0;swimlaneHead=0;swimlaneBody=0;strokeColor=inherit;top=0;left=0;bottom=0;right=0;collapsible=0;dropTarget=0;fillColor=none;points=[[0,0.5],[1,0.5]];portConstraint=eastwest;fontSize=17;fontFamily=宋体;" parent="Vby_wplITrG2B5T74BE5-15" vertex="1">
          <mxGeometry y="70" width="80" height="10" as="geometry" />
        </mxCell>
        <mxCell id="Vby_wplITrG2B5T74BE5-80" value="" style="shape=partialRectangle;html=1;whiteSpace=wrap;connectable=0;strokeColor=inherit;overflow=hidden;fillColor=none;top=0;left=0;bottom=0;right=0;pointerEvents=1;fontSize=17;fontFamily=宋体;" parent="Vby_wplITrG2B5T74BE5-79" vertex="1">
          <mxGeometry width="10" height="10" as="geometry">
            <mxRectangle width="10" height="10" as="alternateBounds" />
          </mxGeometry>
        </mxCell>
        <mxCell id="Vby_wplITrG2B5T74BE5-81" value="" style="shape=partialRectangle;html=1;whiteSpace=wrap;connectable=0;strokeColor=inherit;overflow=hidden;fillColor=none;top=0;left=0;bottom=0;right=0;pointerEvents=1;fontSize=17;fontFamily=宋体;" parent="Vby_wplITrG2B5T74BE5-79" vertex="1">
          <mxGeometry x="10" width="10" height="10" as="geometry">
            <mxRectangle width="10" height="10" as="alternateBounds" />
          </mxGeometry>
        </mxCell>
        <mxCell id="Vby_wplITrG2B5T74BE5-82" value="" style="shape=partialRectangle;html=1;whiteSpace=wrap;connectable=0;strokeColor=inherit;overflow=hidden;fillColor=none;top=0;left=0;bottom=0;right=0;pointerEvents=1;fontSize=17;fontFamily=宋体;" parent="Vby_wplITrG2B5T74BE5-79" vertex="1">
          <mxGeometry x="20" width="10" height="10" as="geometry">
            <mxRectangle width="10" height="10" as="alternateBounds" />
          </mxGeometry>
        </mxCell>
        <mxCell id="Vby_wplITrG2B5T74BE5-83" value="" style="shape=partialRectangle;html=1;whiteSpace=wrap;connectable=0;strokeColor=inherit;overflow=hidden;fillColor=none;top=0;left=0;bottom=0;right=0;pointerEvents=1;fontSize=17;fontFamily=宋体;" parent="Vby_wplITrG2B5T74BE5-79" vertex="1">
          <mxGeometry x="30" width="10" height="10" as="geometry">
            <mxRectangle width="10" height="10" as="alternateBounds" />
          </mxGeometry>
        </mxCell>
        <mxCell id="Vby_wplITrG2B5T74BE5-84" value="" style="shape=partialRectangle;html=1;whiteSpace=wrap;connectable=0;strokeColor=inherit;overflow=hidden;fillColor=none;top=0;left=0;bottom=0;right=0;pointerEvents=1;fontSize=17;fontFamily=宋体;" parent="Vby_wplITrG2B5T74BE5-79" vertex="1">
          <mxGeometry x="40" width="10" height="10" as="geometry">
            <mxRectangle width="10" height="10" as="alternateBounds" />
          </mxGeometry>
        </mxCell>
        <mxCell id="Vby_wplITrG2B5T74BE5-85" value="" style="shape=partialRectangle;html=1;whiteSpace=wrap;connectable=0;strokeColor=inherit;overflow=hidden;fillColor=none;top=0;left=0;bottom=0;right=0;pointerEvents=1;fontSize=17;fontFamily=宋体;" parent="Vby_wplITrG2B5T74BE5-79" vertex="1">
          <mxGeometry x="50" width="10" height="10" as="geometry">
            <mxRectangle width="10" height="10" as="alternateBounds" />
          </mxGeometry>
        </mxCell>
        <mxCell id="Vby_wplITrG2B5T74BE5-86" value="" style="shape=partialRectangle;html=1;whiteSpace=wrap;connectable=0;strokeColor=inherit;overflow=hidden;fillColor=none;top=0;left=0;bottom=0;right=0;pointerEvents=1;fontSize=17;fontFamily=宋体;" parent="Vby_wplITrG2B5T74BE5-79" vertex="1">
          <mxGeometry x="60" width="10" height="10" as="geometry">
            <mxRectangle width="10" height="10" as="alternateBounds" />
          </mxGeometry>
        </mxCell>
        <mxCell id="Vby_wplITrG2B5T74BE5-87" value="" style="shape=partialRectangle;html=1;whiteSpace=wrap;connectable=0;strokeColor=inherit;overflow=hidden;fillColor=none;top=0;left=0;bottom=0;right=0;pointerEvents=1;fontSize=17;fontFamily=宋体;" parent="Vby_wplITrG2B5T74BE5-79" vertex="1">
          <mxGeometry x="70" width="10" height="10" as="geometry">
            <mxRectangle width="10" height="10" as="alternateBounds" />
          </mxGeometry>
        </mxCell>
        <mxCell id="Vby_wplITrG2B5T74BE5-130" value="8&lt;font face=&quot;Helvetica&quot;&gt;X&lt;/font&gt;8数据单元" style="text;html=1;align=center;verticalAlign=middle;whiteSpace=wrap;rounded=0;fontFamily=宋体;fontSize=17;fontColor=default;labelBackgroundColor=default;" parent="Vby_wplITrG2B5T74BE5-131" vertex="1">
          <mxGeometry y="100" width="100" height="30" as="geometry" />
        </mxCell>
        <mxCell id="Vby_wplITrG2B5T74BE5-135" value="" style="edgeStyle=orthogonalEdgeStyle;shape=connector;rounded=0;orthogonalLoop=1;jettySize=auto;html=1;strokeColor=default;align=center;verticalAlign=middle;fontFamily=宋体;fontSize=17;fontColor=default;labelBackgroundColor=default;endArrow=block;endFill=1;" parent="1" source="Vby_wplITrG2B5T74BE5-132" target="Vby_wplITrG2B5T74BE5-134" edge="1">
          <mxGeometry relative="1" as="geometry" />
        </mxCell>
        <mxCell id="Vby_wplITrG2B5T74BE5-132" value="DCT变换" style="rounded=0;whiteSpace=wrap;html=1;fontSize=17;fontFamily=宋体;" parent="1" vertex="1">
          <mxGeometry x="620" y="240" width="120" height="40" as="geometry" />
        </mxCell>
        <mxCell id="Vby_wplITrG2B5T74BE5-133" style="shape=connector;rounded=0;orthogonalLoop=1;jettySize=auto;html=1;exitX=0;exitY=0.5;exitDx=0;exitDy=0;strokeColor=default;align=center;verticalAlign=middle;fontFamily=宋体;fontSize=17;fontColor=default;labelBackgroundColor=default;endArrow=none;endFill=0;startArrow=block;startFill=1;" parent="1" edge="1">
          <mxGeometry relative="1" as="geometry">
            <mxPoint x="580" y="259.89" as="targetPoint" />
            <mxPoint x="620" y="259.89" as="sourcePoint" />
          </mxGeometry>
        </mxCell>
        <mxCell id="Vby_wplITrG2B5T74BE5-137" value="" style="edgeStyle=orthogonalEdgeStyle;shape=connector;rounded=0;orthogonalLoop=1;jettySize=auto;html=1;strokeColor=default;align=center;verticalAlign=middle;fontFamily=宋体;fontSize=17;fontColor=default;labelBackgroundColor=default;endArrow=block;endFill=1;" parent="1" source="Vby_wplITrG2B5T74BE5-134" target="Vby_wplITrG2B5T74BE5-136" edge="1">
          <mxGeometry relative="1" as="geometry" />
        </mxCell>
        <mxCell id="Vby_wplITrG2B5T74BE5-134" value="量化" style="rounded=0;whiteSpace=wrap;html=1;fontFamily=宋体;fontSize=17;fontColor=default;labelBackgroundColor=default;" parent="1" vertex="1">
          <mxGeometry x="780" y="240" width="120" height="40" as="geometry" />
        </mxCell>
        <mxCell id="Vby_wplITrG2B5T74BE5-140" value="" style="edgeStyle=orthogonalEdgeStyle;shape=connector;rounded=0;orthogonalLoop=1;jettySize=auto;html=1;strokeColor=default;align=center;verticalAlign=middle;fontFamily=宋体;fontSize=17;fontColor=default;labelBackgroundColor=default;endArrow=block;endFill=1;entryX=1;entryY=0.5;entryDx=0;entryDy=0;" parent="1" source="Vby_wplITrG2B5T74BE5-136" target="Vby_wplITrG2B5T74BE5-141" edge="1">
          <mxGeometry relative="1" as="geometry">
            <mxPoint x="740" y="380" as="targetPoint" />
          </mxGeometry>
        </mxCell>
        <mxCell id="Vby_wplITrG2B5T74BE5-136" value="Zig-Zag扫描" style="rounded=0;whiteSpace=wrap;html=1;fontFamily=宋体;fontSize=17;fontColor=default;labelBackgroundColor=default;" parent="1" vertex="1">
          <mxGeometry x="780" y="360" width="120" height="40" as="geometry" />
        </mxCell>
        <mxCell id="l6YxhsuJ442XK4JiuoYg-2" style="edgeStyle=orthogonalEdgeStyle;rounded=0;orthogonalLoop=1;jettySize=auto;html=1;entryX=1;entryY=0.5;entryDx=0;entryDy=0;" edge="1" parent="1" source="Vby_wplITrG2B5T74BE5-141" target="l6YxhsuJ442XK4JiuoYg-1">
          <mxGeometry relative="1" as="geometry">
            <Array as="points" />
          </mxGeometry>
        </mxCell>
        <mxCell id="Vby_wplITrG2B5T74BE5-141" value="熵编码" style="rounded=0;whiteSpace=wrap;html=1;fontFamily=宋体;fontSize=17;fontColor=default;labelBackgroundColor=default;" parent="1" vertex="1">
          <mxGeometry x="620" y="360" width="120" height="40" as="geometry" />
        </mxCell>
        <mxCell id="Vby_wplITrG2B5T74BE5-150" value="" style="edgeStyle=orthogonalEdgeStyle;shape=connector;rounded=0;orthogonalLoop=1;jettySize=auto;html=1;strokeColor=default;align=center;verticalAlign=middle;fontFamily=宋体;fontSize=17;fontColor=default;labelBackgroundColor=default;endArrow=block;endFill=1;entryX=0.5;entryY=0;entryDx=0;entryDy=0;" parent="1" source="Vby_wplITrG2B5T74BE5-147" target="l6YxhsuJ442XK4JiuoYg-4" edge="1">
          <mxGeometry relative="1" as="geometry" />
        </mxCell>
        <mxCell id="Vby_wplITrG2B5T74BE5-147" value="JPEG&lt;div&gt;文件&lt;/div&gt;" style="shape=note;size=20;whiteSpace=wrap;html=1;fontFamily=宋体;fontSize=17;fontColor=default;labelBackgroundColor=default;" parent="1" vertex="1">
          <mxGeometry x="490" y="470" width="60" height="60" as="geometry" />
        </mxCell>
        <mxCell id="Vby_wplITrG2B5T74BE5-152" value="" style="edgeStyle=orthogonalEdgeStyle;shape=connector;rounded=0;orthogonalLoop=1;jettySize=auto;html=1;strokeColor=default;align=center;verticalAlign=middle;fontFamily=宋体;fontSize=17;fontColor=default;labelBackgroundColor=default;endArrow=block;endFill=1;entryX=1;entryY=0.5;entryDx=0;entryDy=0;" parent="1" source="Vby_wplITrG2B5T74BE5-149" target="Vby_wplITrG2B5T74BE5-153" edge="1">
          <mxGeometry relative="1" as="geometry">
            <mxPoint x="420.0000000000002" y="610" as="targetPoint" />
          </mxGeometry>
        </mxCell>
        <mxCell id="Vby_wplITrG2B5T74BE5-149" value="熵解码" style="whiteSpace=wrap;html=1;fontSize=17;labelBackgroundColor=default;fontFamily=宋体;" parent="1" vertex="1">
          <mxGeometry x="300" y="590" width="120" height="40" as="geometry" />
        </mxCell>
        <mxCell id="Vby_wplITrG2B5T74BE5-156" value="" style="edgeStyle=orthogonalEdgeStyle;shape=connector;rounded=0;orthogonalLoop=1;jettySize=auto;html=1;strokeColor=default;align=center;verticalAlign=middle;fontFamily=宋体;fontSize=17;fontColor=default;labelBackgroundColor=default;endArrow=block;endFill=1;" parent="1" source="Vby_wplITrG2B5T74BE5-153" target="Vby_wplITrG2B5T74BE5-155" edge="1">
          <mxGeometry relative="1" as="geometry" />
        </mxCell>
        <mxCell id="Vby_wplITrG2B5T74BE5-153" value="反Zig-Zag扫描" style="whiteSpace=wrap;html=1;fontSize=17;labelBackgroundColor=default;fontFamily=宋体;" parent="1" vertex="1">
          <mxGeometry x="140" y="590" width="120" height="40" as="geometry" />
        </mxCell>
        <mxCell id="Vby_wplITrG2B5T74BE5-158" value="" style="edgeStyle=orthogonalEdgeStyle;shape=connector;rounded=0;orthogonalLoop=1;jettySize=auto;html=1;strokeColor=default;align=center;verticalAlign=middle;fontFamily=宋体;fontSize=17;fontColor=default;labelBackgroundColor=default;endArrow=block;endFill=1;" parent="1" source="Vby_wplITrG2B5T74BE5-155" target="Vby_wplITrG2B5T74BE5-157" edge="1">
          <mxGeometry relative="1" as="geometry" />
        </mxCell>
        <mxCell id="Vby_wplITrG2B5T74BE5-155" value="反量化" style="whiteSpace=wrap;html=1;fontSize=17;labelBackgroundColor=default;fontFamily=宋体;" parent="1" vertex="1">
          <mxGeometry x="140" y="710" width="120" height="40" as="geometry" />
        </mxCell>
        <mxCell id="Vby_wplITrG2B5T74BE5-392" style="edgeStyle=orthogonalEdgeStyle;shape=connector;rounded=0;orthogonalLoop=1;jettySize=auto;html=1;entryX=0;entryY=0.75;entryDx=0;entryDy=0;strokeColor=default;align=center;verticalAlign=middle;fontFamily=宋体;fontSize=17;fontColor=default;labelBackgroundColor=default;endArrow=block;endFill=1;" parent="1" source="Vby_wplITrG2B5T74BE5-157" target="Vby_wplITrG2B5T74BE5-316" edge="1">
          <mxGeometry relative="1" as="geometry" />
        </mxCell>
        <mxCell id="Vby_wplITrG2B5T74BE5-157" value="DCT逆变换" style="whiteSpace=wrap;html=1;fontSize=17;labelBackgroundColor=default;fontFamily=宋体;" parent="1" vertex="1">
          <mxGeometry x="300" y="710" width="120" height="40" as="geometry" />
        </mxCell>
        <mxCell id="Vby_wplITrG2B5T74BE5-314" value="" style="group;fontFamily=宋体;fontSize=17;" parent="1" vertex="1" connectable="0">
          <mxGeometry x="460" y="670" width="100" height="130" as="geometry" />
        </mxCell>
        <mxCell id="Vby_wplITrG2B5T74BE5-315" value="" style="group;fontFamily=宋体;fontSize=17;" parent="Vby_wplITrG2B5T74BE5-314" vertex="1" connectable="0">
          <mxGeometry width="100" height="101" as="geometry" />
        </mxCell>
        <mxCell id="Vby_wplITrG2B5T74BE5-316" value="" style="whiteSpace=wrap;html=1;aspect=fixed;fillColor=#eeeeee;strokeColor=#36393d;fontFamily=宋体;fontSize=17;" parent="Vby_wplITrG2B5T74BE5-315" vertex="1">
          <mxGeometry width="80" height="80" as="geometry" />
        </mxCell>
        <mxCell id="Vby_wplITrG2B5T74BE5-317" value="" style="whiteSpace=wrap;html=1;aspect=fixed;fillColor=#eeeeee;strokeColor=#36393d;fontFamily=宋体;fontSize=17;" parent="Vby_wplITrG2B5T74BE5-315" vertex="1">
          <mxGeometry x="10" y="11" width="80" height="80" as="geometry" />
        </mxCell>
        <mxCell id="Vby_wplITrG2B5T74BE5-318" value="" style="shape=table;startSize=0;container=1;collapsible=0;childLayout=tableLayout;fontFamily=宋体;fontSize=17;" parent="Vby_wplITrG2B5T74BE5-315" vertex="1">
          <mxGeometry x="20" y="21" width="80" height="80" as="geometry" />
        </mxCell>
        <mxCell id="Vby_wplITrG2B5T74BE5-319" value="" style="shape=tableRow;horizontal=0;startSize=0;swimlaneHead=0;swimlaneBody=0;strokeColor=inherit;top=0;left=0;bottom=0;right=0;collapsible=0;dropTarget=0;fillColor=none;points=[[0,0.5],[1,0.5]];portConstraint=eastwest;fontFamily=宋体;fontSize=17;" parent="Vby_wplITrG2B5T74BE5-318" vertex="1">
          <mxGeometry width="80" height="10" as="geometry" />
        </mxCell>
        <mxCell id="Vby_wplITrG2B5T74BE5-320" value="" style="shape=partialRectangle;html=1;whiteSpace=wrap;connectable=0;strokeColor=inherit;overflow=hidden;fillColor=none;top=0;left=0;bottom=0;right=0;pointerEvents=1;fontFamily=宋体;fontSize=17;" parent="Vby_wplITrG2B5T74BE5-319" vertex="1">
          <mxGeometry width="10" height="10" as="geometry">
            <mxRectangle width="10" height="10" as="alternateBounds" />
          </mxGeometry>
        </mxCell>
        <mxCell id="Vby_wplITrG2B5T74BE5-321" value="" style="shape=partialRectangle;html=1;whiteSpace=wrap;connectable=0;strokeColor=inherit;overflow=hidden;fillColor=none;top=0;left=0;bottom=0;right=0;pointerEvents=1;fontFamily=宋体;fontSize=17;" parent="Vby_wplITrG2B5T74BE5-319" vertex="1">
          <mxGeometry x="10" width="10" height="10" as="geometry">
            <mxRectangle width="10" height="10" as="alternateBounds" />
          </mxGeometry>
        </mxCell>
        <mxCell id="Vby_wplITrG2B5T74BE5-322" value="" style="shape=partialRectangle;html=1;whiteSpace=wrap;connectable=0;strokeColor=inherit;overflow=hidden;fillColor=none;top=0;left=0;bottom=0;right=0;pointerEvents=1;fontFamily=宋体;fontSize=17;" parent="Vby_wplITrG2B5T74BE5-319" vertex="1">
          <mxGeometry x="20" width="10" height="10" as="geometry">
            <mxRectangle width="10" height="10" as="alternateBounds" />
          </mxGeometry>
        </mxCell>
        <mxCell id="Vby_wplITrG2B5T74BE5-323" value="" style="shape=partialRectangle;html=1;whiteSpace=wrap;connectable=0;strokeColor=inherit;overflow=hidden;fillColor=none;top=0;left=0;bottom=0;right=0;pointerEvents=1;fontFamily=宋体;fontSize=17;" parent="Vby_wplITrG2B5T74BE5-319" vertex="1">
          <mxGeometry x="30" width="10" height="10" as="geometry">
            <mxRectangle width="10" height="10" as="alternateBounds" />
          </mxGeometry>
        </mxCell>
        <mxCell id="Vby_wplITrG2B5T74BE5-324" value="" style="shape=partialRectangle;html=1;whiteSpace=wrap;connectable=0;strokeColor=inherit;overflow=hidden;fillColor=none;top=0;left=0;bottom=0;right=0;pointerEvents=1;fontFamily=宋体;fontSize=17;" parent="Vby_wplITrG2B5T74BE5-319" vertex="1">
          <mxGeometry x="40" width="10" height="10" as="geometry">
            <mxRectangle width="10" height="10" as="alternateBounds" />
          </mxGeometry>
        </mxCell>
        <mxCell id="Vby_wplITrG2B5T74BE5-325" value="" style="shape=partialRectangle;html=1;whiteSpace=wrap;connectable=0;strokeColor=inherit;overflow=hidden;fillColor=none;top=0;left=0;bottom=0;right=0;pointerEvents=1;fontFamily=宋体;fontSize=17;" parent="Vby_wplITrG2B5T74BE5-319" vertex="1">
          <mxGeometry x="50" width="10" height="10" as="geometry">
            <mxRectangle width="10" height="10" as="alternateBounds" />
          </mxGeometry>
        </mxCell>
        <mxCell id="Vby_wplITrG2B5T74BE5-326" value="" style="shape=partialRectangle;html=1;whiteSpace=wrap;connectable=0;strokeColor=inherit;overflow=hidden;fillColor=none;top=0;left=0;bottom=0;right=0;pointerEvents=1;fontFamily=宋体;fontSize=17;" parent="Vby_wplITrG2B5T74BE5-319" vertex="1">
          <mxGeometry x="60" width="10" height="10" as="geometry">
            <mxRectangle width="10" height="10" as="alternateBounds" />
          </mxGeometry>
        </mxCell>
        <mxCell id="Vby_wplITrG2B5T74BE5-327" value="" style="shape=partialRectangle;html=1;whiteSpace=wrap;connectable=0;strokeColor=inherit;overflow=hidden;fillColor=none;top=0;left=0;bottom=0;right=0;pointerEvents=1;fontFamily=宋体;fontSize=17;" parent="Vby_wplITrG2B5T74BE5-319" vertex="1">
          <mxGeometry x="70" width="10" height="10" as="geometry">
            <mxRectangle width="10" height="10" as="alternateBounds" />
          </mxGeometry>
        </mxCell>
        <mxCell id="Vby_wplITrG2B5T74BE5-328" value="" style="shape=tableRow;horizontal=0;startSize=0;swimlaneHead=0;swimlaneBody=0;strokeColor=inherit;top=0;left=0;bottom=0;right=0;collapsible=0;dropTarget=0;fillColor=none;points=[[0,0.5],[1,0.5]];portConstraint=eastwest;fontFamily=宋体;fontSize=17;" parent="Vby_wplITrG2B5T74BE5-318" vertex="1">
          <mxGeometry y="10" width="80" height="10" as="geometry" />
        </mxCell>
        <mxCell id="Vby_wplITrG2B5T74BE5-329" value="" style="shape=partialRectangle;html=1;whiteSpace=wrap;connectable=0;strokeColor=inherit;overflow=hidden;fillColor=none;top=0;left=0;bottom=0;right=0;pointerEvents=1;fontFamily=宋体;fontSize=17;" parent="Vby_wplITrG2B5T74BE5-328" vertex="1">
          <mxGeometry width="10" height="10" as="geometry">
            <mxRectangle width="10" height="10" as="alternateBounds" />
          </mxGeometry>
        </mxCell>
        <mxCell id="Vby_wplITrG2B5T74BE5-330" value="" style="shape=partialRectangle;html=1;whiteSpace=wrap;connectable=0;strokeColor=inherit;overflow=hidden;fillColor=none;top=0;left=0;bottom=0;right=0;pointerEvents=1;fontFamily=宋体;fontSize=17;" parent="Vby_wplITrG2B5T74BE5-328" vertex="1">
          <mxGeometry x="10" width="10" height="10" as="geometry">
            <mxRectangle width="10" height="10" as="alternateBounds" />
          </mxGeometry>
        </mxCell>
        <mxCell id="Vby_wplITrG2B5T74BE5-331" value="" style="shape=partialRectangle;html=1;whiteSpace=wrap;connectable=0;strokeColor=inherit;overflow=hidden;fillColor=none;top=0;left=0;bottom=0;right=0;pointerEvents=1;fontFamily=宋体;fontSize=17;" parent="Vby_wplITrG2B5T74BE5-328" vertex="1">
          <mxGeometry x="20" width="10" height="10" as="geometry">
            <mxRectangle width="10" height="10" as="alternateBounds" />
          </mxGeometry>
        </mxCell>
        <mxCell id="Vby_wplITrG2B5T74BE5-332" value="" style="shape=partialRectangle;html=1;whiteSpace=wrap;connectable=0;strokeColor=inherit;overflow=hidden;fillColor=none;top=0;left=0;bottom=0;right=0;pointerEvents=1;fontFamily=宋体;fontSize=17;" parent="Vby_wplITrG2B5T74BE5-328" vertex="1">
          <mxGeometry x="30" width="10" height="10" as="geometry">
            <mxRectangle width="10" height="10" as="alternateBounds" />
          </mxGeometry>
        </mxCell>
        <mxCell id="Vby_wplITrG2B5T74BE5-333" value="" style="shape=partialRectangle;html=1;whiteSpace=wrap;connectable=0;strokeColor=inherit;overflow=hidden;fillColor=none;top=0;left=0;bottom=0;right=0;pointerEvents=1;fontFamily=宋体;fontSize=17;" parent="Vby_wplITrG2B5T74BE5-328" vertex="1">
          <mxGeometry x="40" width="10" height="10" as="geometry">
            <mxRectangle width="10" height="10" as="alternateBounds" />
          </mxGeometry>
        </mxCell>
        <mxCell id="Vby_wplITrG2B5T74BE5-334" value="" style="shape=partialRectangle;html=1;whiteSpace=wrap;connectable=0;strokeColor=inherit;overflow=hidden;fillColor=none;top=0;left=0;bottom=0;right=0;pointerEvents=1;fontFamily=宋体;fontSize=17;" parent="Vby_wplITrG2B5T74BE5-328" vertex="1">
          <mxGeometry x="50" width="10" height="10" as="geometry">
            <mxRectangle width="10" height="10" as="alternateBounds" />
          </mxGeometry>
        </mxCell>
        <mxCell id="Vby_wplITrG2B5T74BE5-335" value="" style="shape=partialRectangle;html=1;whiteSpace=wrap;connectable=0;strokeColor=inherit;overflow=hidden;fillColor=none;top=0;left=0;bottom=0;right=0;pointerEvents=1;fontFamily=宋体;fontSize=17;" parent="Vby_wplITrG2B5T74BE5-328" vertex="1">
          <mxGeometry x="60" width="10" height="10" as="geometry">
            <mxRectangle width="10" height="10" as="alternateBounds" />
          </mxGeometry>
        </mxCell>
        <mxCell id="Vby_wplITrG2B5T74BE5-336" value="" style="shape=partialRectangle;html=1;whiteSpace=wrap;connectable=0;strokeColor=inherit;overflow=hidden;fillColor=none;top=0;left=0;bottom=0;right=0;pointerEvents=1;fontFamily=宋体;fontSize=17;" parent="Vby_wplITrG2B5T74BE5-328" vertex="1">
          <mxGeometry x="70" width="10" height="10" as="geometry">
            <mxRectangle width="10" height="10" as="alternateBounds" />
          </mxGeometry>
        </mxCell>
        <mxCell id="Vby_wplITrG2B5T74BE5-337" value="" style="shape=tableRow;horizontal=0;startSize=0;swimlaneHead=0;swimlaneBody=0;strokeColor=inherit;top=0;left=0;bottom=0;right=0;collapsible=0;dropTarget=0;fillColor=none;points=[[0,0.5],[1,0.5]];portConstraint=eastwest;fontFamily=宋体;fontSize=17;" parent="Vby_wplITrG2B5T74BE5-318" vertex="1">
          <mxGeometry y="20" width="80" height="10" as="geometry" />
        </mxCell>
        <mxCell id="Vby_wplITrG2B5T74BE5-338" value="" style="shape=partialRectangle;html=1;whiteSpace=wrap;connectable=0;strokeColor=inherit;overflow=hidden;fillColor=none;top=0;left=0;bottom=0;right=0;pointerEvents=1;fontFamily=宋体;fontSize=17;" parent="Vby_wplITrG2B5T74BE5-337" vertex="1">
          <mxGeometry width="10" height="10" as="geometry">
            <mxRectangle width="10" height="10" as="alternateBounds" />
          </mxGeometry>
        </mxCell>
        <mxCell id="Vby_wplITrG2B5T74BE5-339" value="" style="shape=partialRectangle;html=1;whiteSpace=wrap;connectable=0;strokeColor=inherit;overflow=hidden;fillColor=none;top=0;left=0;bottom=0;right=0;pointerEvents=1;fontFamily=宋体;fontSize=17;" parent="Vby_wplITrG2B5T74BE5-337" vertex="1">
          <mxGeometry x="10" width="10" height="10" as="geometry">
            <mxRectangle width="10" height="10" as="alternateBounds" />
          </mxGeometry>
        </mxCell>
        <mxCell id="Vby_wplITrG2B5T74BE5-340" value="" style="shape=partialRectangle;html=1;whiteSpace=wrap;connectable=0;strokeColor=inherit;overflow=hidden;fillColor=none;top=0;left=0;bottom=0;right=0;pointerEvents=1;fontFamily=宋体;fontSize=17;" parent="Vby_wplITrG2B5T74BE5-337" vertex="1">
          <mxGeometry x="20" width="10" height="10" as="geometry">
            <mxRectangle width="10" height="10" as="alternateBounds" />
          </mxGeometry>
        </mxCell>
        <mxCell id="Vby_wplITrG2B5T74BE5-341" value="" style="shape=partialRectangle;html=1;whiteSpace=wrap;connectable=0;strokeColor=inherit;overflow=hidden;fillColor=none;top=0;left=0;bottom=0;right=0;pointerEvents=1;fontFamily=宋体;fontSize=17;" parent="Vby_wplITrG2B5T74BE5-337" vertex="1">
          <mxGeometry x="30" width="10" height="10" as="geometry">
            <mxRectangle width="10" height="10" as="alternateBounds" />
          </mxGeometry>
        </mxCell>
        <mxCell id="Vby_wplITrG2B5T74BE5-342" value="" style="shape=partialRectangle;html=1;whiteSpace=wrap;connectable=0;strokeColor=inherit;overflow=hidden;fillColor=none;top=0;left=0;bottom=0;right=0;pointerEvents=1;fontFamily=宋体;fontSize=17;" parent="Vby_wplITrG2B5T74BE5-337" vertex="1">
          <mxGeometry x="40" width="10" height="10" as="geometry">
            <mxRectangle width="10" height="10" as="alternateBounds" />
          </mxGeometry>
        </mxCell>
        <mxCell id="Vby_wplITrG2B5T74BE5-343" value="" style="shape=partialRectangle;html=1;whiteSpace=wrap;connectable=0;strokeColor=inherit;overflow=hidden;fillColor=none;top=0;left=0;bottom=0;right=0;pointerEvents=1;fontFamily=宋体;fontSize=17;" parent="Vby_wplITrG2B5T74BE5-337" vertex="1">
          <mxGeometry x="50" width="10" height="10" as="geometry">
            <mxRectangle width="10" height="10" as="alternateBounds" />
          </mxGeometry>
        </mxCell>
        <mxCell id="Vby_wplITrG2B5T74BE5-344" value="" style="shape=partialRectangle;html=1;whiteSpace=wrap;connectable=0;strokeColor=inherit;overflow=hidden;fillColor=none;top=0;left=0;bottom=0;right=0;pointerEvents=1;fontFamily=宋体;fontSize=17;" parent="Vby_wplITrG2B5T74BE5-337" vertex="1">
          <mxGeometry x="60" width="10" height="10" as="geometry">
            <mxRectangle width="10" height="10" as="alternateBounds" />
          </mxGeometry>
        </mxCell>
        <mxCell id="Vby_wplITrG2B5T74BE5-345" value="" style="shape=partialRectangle;html=1;whiteSpace=wrap;connectable=0;strokeColor=inherit;overflow=hidden;fillColor=none;top=0;left=0;bottom=0;right=0;pointerEvents=1;fontFamily=宋体;fontSize=17;" parent="Vby_wplITrG2B5T74BE5-337" vertex="1">
          <mxGeometry x="70" width="10" height="10" as="geometry">
            <mxRectangle width="10" height="10" as="alternateBounds" />
          </mxGeometry>
        </mxCell>
        <mxCell id="Vby_wplITrG2B5T74BE5-346" value="" style="shape=tableRow;horizontal=0;startSize=0;swimlaneHead=0;swimlaneBody=0;strokeColor=inherit;top=0;left=0;bottom=0;right=0;collapsible=0;dropTarget=0;fillColor=none;points=[[0,0.5],[1,0.5]];portConstraint=eastwest;fontFamily=宋体;fontSize=17;" parent="Vby_wplITrG2B5T74BE5-318" vertex="1">
          <mxGeometry y="30" width="80" height="10" as="geometry" />
        </mxCell>
        <mxCell id="Vby_wplITrG2B5T74BE5-347" value="" style="shape=partialRectangle;html=1;whiteSpace=wrap;connectable=0;strokeColor=inherit;overflow=hidden;fillColor=none;top=0;left=0;bottom=0;right=0;pointerEvents=1;fontFamily=宋体;fontSize=17;" parent="Vby_wplITrG2B5T74BE5-346" vertex="1">
          <mxGeometry width="10" height="10" as="geometry">
            <mxRectangle width="10" height="10" as="alternateBounds" />
          </mxGeometry>
        </mxCell>
        <mxCell id="Vby_wplITrG2B5T74BE5-348" value="" style="shape=partialRectangle;html=1;whiteSpace=wrap;connectable=0;strokeColor=inherit;overflow=hidden;fillColor=none;top=0;left=0;bottom=0;right=0;pointerEvents=1;fontFamily=宋体;fontSize=17;" parent="Vby_wplITrG2B5T74BE5-346" vertex="1">
          <mxGeometry x="10" width="10" height="10" as="geometry">
            <mxRectangle width="10" height="10" as="alternateBounds" />
          </mxGeometry>
        </mxCell>
        <mxCell id="Vby_wplITrG2B5T74BE5-349" value="" style="shape=partialRectangle;html=1;whiteSpace=wrap;connectable=0;strokeColor=inherit;overflow=hidden;fillColor=none;top=0;left=0;bottom=0;right=0;pointerEvents=1;fontFamily=宋体;fontSize=17;" parent="Vby_wplITrG2B5T74BE5-346" vertex="1">
          <mxGeometry x="20" width="10" height="10" as="geometry">
            <mxRectangle width="10" height="10" as="alternateBounds" />
          </mxGeometry>
        </mxCell>
        <mxCell id="Vby_wplITrG2B5T74BE5-350" value="" style="shape=partialRectangle;html=1;whiteSpace=wrap;connectable=0;strokeColor=inherit;overflow=hidden;fillColor=none;top=0;left=0;bottom=0;right=0;pointerEvents=1;fontFamily=宋体;fontSize=17;" parent="Vby_wplITrG2B5T74BE5-346" vertex="1">
          <mxGeometry x="30" width="10" height="10" as="geometry">
            <mxRectangle width="10" height="10" as="alternateBounds" />
          </mxGeometry>
        </mxCell>
        <mxCell id="Vby_wplITrG2B5T74BE5-351" value="" style="shape=partialRectangle;html=1;whiteSpace=wrap;connectable=0;strokeColor=inherit;overflow=hidden;fillColor=none;top=0;left=0;bottom=0;right=0;pointerEvents=1;fontFamily=宋体;fontSize=17;" parent="Vby_wplITrG2B5T74BE5-346" vertex="1">
          <mxGeometry x="40" width="10" height="10" as="geometry">
            <mxRectangle width="10" height="10" as="alternateBounds" />
          </mxGeometry>
        </mxCell>
        <mxCell id="Vby_wplITrG2B5T74BE5-352" value="" style="shape=partialRectangle;html=1;whiteSpace=wrap;connectable=0;strokeColor=inherit;overflow=hidden;fillColor=none;top=0;left=0;bottom=0;right=0;pointerEvents=1;fontFamily=宋体;fontSize=17;" parent="Vby_wplITrG2B5T74BE5-346" vertex="1">
          <mxGeometry x="50" width="10" height="10" as="geometry">
            <mxRectangle width="10" height="10" as="alternateBounds" />
          </mxGeometry>
        </mxCell>
        <mxCell id="Vby_wplITrG2B5T74BE5-353" value="" style="shape=partialRectangle;html=1;whiteSpace=wrap;connectable=0;strokeColor=inherit;overflow=hidden;fillColor=none;top=0;left=0;bottom=0;right=0;pointerEvents=1;fontFamily=宋体;fontSize=17;" parent="Vby_wplITrG2B5T74BE5-346" vertex="1">
          <mxGeometry x="60" width="10" height="10" as="geometry">
            <mxRectangle width="10" height="10" as="alternateBounds" />
          </mxGeometry>
        </mxCell>
        <mxCell id="Vby_wplITrG2B5T74BE5-354" value="" style="shape=partialRectangle;html=1;whiteSpace=wrap;connectable=0;strokeColor=inherit;overflow=hidden;fillColor=none;top=0;left=0;bottom=0;right=0;pointerEvents=1;fontFamily=宋体;fontSize=17;" parent="Vby_wplITrG2B5T74BE5-346" vertex="1">
          <mxGeometry x="70" width="10" height="10" as="geometry">
            <mxRectangle width="10" height="10" as="alternateBounds" />
          </mxGeometry>
        </mxCell>
        <mxCell id="Vby_wplITrG2B5T74BE5-355" value="" style="shape=tableRow;horizontal=0;startSize=0;swimlaneHead=0;swimlaneBody=0;strokeColor=inherit;top=0;left=0;bottom=0;right=0;collapsible=0;dropTarget=0;fillColor=none;points=[[0,0.5],[1,0.5]];portConstraint=eastwest;fontFamily=宋体;fontSize=17;" parent="Vby_wplITrG2B5T74BE5-318" vertex="1">
          <mxGeometry y="40" width="80" height="10" as="geometry" />
        </mxCell>
        <mxCell id="Vby_wplITrG2B5T74BE5-356" value="" style="shape=partialRectangle;html=1;whiteSpace=wrap;connectable=0;strokeColor=inherit;overflow=hidden;fillColor=none;top=0;left=0;bottom=0;right=0;pointerEvents=1;fontFamily=宋体;fontSize=17;" parent="Vby_wplITrG2B5T74BE5-355" vertex="1">
          <mxGeometry width="10" height="10" as="geometry">
            <mxRectangle width="10" height="10" as="alternateBounds" />
          </mxGeometry>
        </mxCell>
        <mxCell id="Vby_wplITrG2B5T74BE5-357" value="" style="shape=partialRectangle;html=1;whiteSpace=wrap;connectable=0;strokeColor=inherit;overflow=hidden;fillColor=none;top=0;left=0;bottom=0;right=0;pointerEvents=1;fontFamily=宋体;fontSize=17;" parent="Vby_wplITrG2B5T74BE5-355" vertex="1">
          <mxGeometry x="10" width="10" height="10" as="geometry">
            <mxRectangle width="10" height="10" as="alternateBounds" />
          </mxGeometry>
        </mxCell>
        <mxCell id="Vby_wplITrG2B5T74BE5-358" value="" style="shape=partialRectangle;html=1;whiteSpace=wrap;connectable=0;strokeColor=inherit;overflow=hidden;fillColor=none;top=0;left=0;bottom=0;right=0;pointerEvents=1;fontFamily=宋体;fontSize=17;" parent="Vby_wplITrG2B5T74BE5-355" vertex="1">
          <mxGeometry x="20" width="10" height="10" as="geometry">
            <mxRectangle width="10" height="10" as="alternateBounds" />
          </mxGeometry>
        </mxCell>
        <mxCell id="Vby_wplITrG2B5T74BE5-359" value="" style="shape=partialRectangle;html=1;whiteSpace=wrap;connectable=0;strokeColor=inherit;overflow=hidden;fillColor=none;top=0;left=0;bottom=0;right=0;pointerEvents=1;fontFamily=宋体;fontSize=17;" parent="Vby_wplITrG2B5T74BE5-355" vertex="1">
          <mxGeometry x="30" width="10" height="10" as="geometry">
            <mxRectangle width="10" height="10" as="alternateBounds" />
          </mxGeometry>
        </mxCell>
        <mxCell id="Vby_wplITrG2B5T74BE5-360" value="" style="shape=partialRectangle;html=1;whiteSpace=wrap;connectable=0;strokeColor=inherit;overflow=hidden;fillColor=none;top=0;left=0;bottom=0;right=0;pointerEvents=1;fontFamily=宋体;fontSize=17;" parent="Vby_wplITrG2B5T74BE5-355" vertex="1">
          <mxGeometry x="40" width="10" height="10" as="geometry">
            <mxRectangle width="10" height="10" as="alternateBounds" />
          </mxGeometry>
        </mxCell>
        <mxCell id="Vby_wplITrG2B5T74BE5-361" value="" style="shape=partialRectangle;html=1;whiteSpace=wrap;connectable=0;strokeColor=inherit;overflow=hidden;fillColor=none;top=0;left=0;bottom=0;right=0;pointerEvents=1;fontFamily=宋体;fontSize=17;" parent="Vby_wplITrG2B5T74BE5-355" vertex="1">
          <mxGeometry x="50" width="10" height="10" as="geometry">
            <mxRectangle width="10" height="10" as="alternateBounds" />
          </mxGeometry>
        </mxCell>
        <mxCell id="Vby_wplITrG2B5T74BE5-362" value="" style="shape=partialRectangle;html=1;whiteSpace=wrap;connectable=0;strokeColor=inherit;overflow=hidden;fillColor=none;top=0;left=0;bottom=0;right=0;pointerEvents=1;fontFamily=宋体;fontSize=17;" parent="Vby_wplITrG2B5T74BE5-355" vertex="1">
          <mxGeometry x="60" width="10" height="10" as="geometry">
            <mxRectangle width="10" height="10" as="alternateBounds" />
          </mxGeometry>
        </mxCell>
        <mxCell id="Vby_wplITrG2B5T74BE5-363" value="" style="shape=partialRectangle;html=1;whiteSpace=wrap;connectable=0;strokeColor=inherit;overflow=hidden;fillColor=none;top=0;left=0;bottom=0;right=0;pointerEvents=1;fontFamily=宋体;fontSize=17;" parent="Vby_wplITrG2B5T74BE5-355" vertex="1">
          <mxGeometry x="70" width="10" height="10" as="geometry">
            <mxRectangle width="10" height="10" as="alternateBounds" />
          </mxGeometry>
        </mxCell>
        <mxCell id="Vby_wplITrG2B5T74BE5-364" value="" style="shape=tableRow;horizontal=0;startSize=0;swimlaneHead=0;swimlaneBody=0;strokeColor=inherit;top=0;left=0;bottom=0;right=0;collapsible=0;dropTarget=0;fillColor=none;points=[[0,0.5],[1,0.5]];portConstraint=eastwest;fontFamily=宋体;fontSize=17;" parent="Vby_wplITrG2B5T74BE5-318" vertex="1">
          <mxGeometry y="50" width="80" height="10" as="geometry" />
        </mxCell>
        <mxCell id="Vby_wplITrG2B5T74BE5-365" value="" style="shape=partialRectangle;html=1;whiteSpace=wrap;connectable=0;strokeColor=inherit;overflow=hidden;fillColor=none;top=0;left=0;bottom=0;right=0;pointerEvents=1;fontFamily=宋体;fontSize=17;" parent="Vby_wplITrG2B5T74BE5-364" vertex="1">
          <mxGeometry width="10" height="10" as="geometry">
            <mxRectangle width="10" height="10" as="alternateBounds" />
          </mxGeometry>
        </mxCell>
        <mxCell id="Vby_wplITrG2B5T74BE5-366" value="" style="shape=partialRectangle;html=1;whiteSpace=wrap;connectable=0;strokeColor=inherit;overflow=hidden;fillColor=none;top=0;left=0;bottom=0;right=0;pointerEvents=1;fontFamily=宋体;fontSize=17;" parent="Vby_wplITrG2B5T74BE5-364" vertex="1">
          <mxGeometry x="10" width="10" height="10" as="geometry">
            <mxRectangle width="10" height="10" as="alternateBounds" />
          </mxGeometry>
        </mxCell>
        <mxCell id="Vby_wplITrG2B5T74BE5-367" value="" style="shape=partialRectangle;html=1;whiteSpace=wrap;connectable=0;strokeColor=inherit;overflow=hidden;fillColor=none;top=0;left=0;bottom=0;right=0;pointerEvents=1;fontFamily=宋体;fontSize=17;" parent="Vby_wplITrG2B5T74BE5-364" vertex="1">
          <mxGeometry x="20" width="10" height="10" as="geometry">
            <mxRectangle width="10" height="10" as="alternateBounds" />
          </mxGeometry>
        </mxCell>
        <mxCell id="Vby_wplITrG2B5T74BE5-368" value="" style="shape=partialRectangle;html=1;whiteSpace=wrap;connectable=0;strokeColor=inherit;overflow=hidden;fillColor=none;top=0;left=0;bottom=0;right=0;pointerEvents=1;fontFamily=宋体;fontSize=17;" parent="Vby_wplITrG2B5T74BE5-364" vertex="1">
          <mxGeometry x="30" width="10" height="10" as="geometry">
            <mxRectangle width="10" height="10" as="alternateBounds" />
          </mxGeometry>
        </mxCell>
        <mxCell id="Vby_wplITrG2B5T74BE5-369" value="" style="shape=partialRectangle;html=1;whiteSpace=wrap;connectable=0;strokeColor=inherit;overflow=hidden;fillColor=none;top=0;left=0;bottom=0;right=0;pointerEvents=1;fontFamily=宋体;fontSize=17;" parent="Vby_wplITrG2B5T74BE5-364" vertex="1">
          <mxGeometry x="40" width="10" height="10" as="geometry">
            <mxRectangle width="10" height="10" as="alternateBounds" />
          </mxGeometry>
        </mxCell>
        <mxCell id="Vby_wplITrG2B5T74BE5-370" value="" style="shape=partialRectangle;html=1;whiteSpace=wrap;connectable=0;strokeColor=inherit;overflow=hidden;fillColor=none;top=0;left=0;bottom=0;right=0;pointerEvents=1;fontFamily=宋体;fontSize=17;" parent="Vby_wplITrG2B5T74BE5-364" vertex="1">
          <mxGeometry x="50" width="10" height="10" as="geometry">
            <mxRectangle width="10" height="10" as="alternateBounds" />
          </mxGeometry>
        </mxCell>
        <mxCell id="Vby_wplITrG2B5T74BE5-371" value="" style="shape=partialRectangle;html=1;whiteSpace=wrap;connectable=0;strokeColor=inherit;overflow=hidden;fillColor=none;top=0;left=0;bottom=0;right=0;pointerEvents=1;fontFamily=宋体;fontSize=17;" parent="Vby_wplITrG2B5T74BE5-364" vertex="1">
          <mxGeometry x="60" width="10" height="10" as="geometry">
            <mxRectangle width="10" height="10" as="alternateBounds" />
          </mxGeometry>
        </mxCell>
        <mxCell id="Vby_wplITrG2B5T74BE5-372" value="" style="shape=partialRectangle;html=1;whiteSpace=wrap;connectable=0;strokeColor=inherit;overflow=hidden;fillColor=none;top=0;left=0;bottom=0;right=0;pointerEvents=1;fontFamily=宋体;fontSize=17;" parent="Vby_wplITrG2B5T74BE5-364" vertex="1">
          <mxGeometry x="70" width="10" height="10" as="geometry">
            <mxRectangle width="10" height="10" as="alternateBounds" />
          </mxGeometry>
        </mxCell>
        <mxCell id="Vby_wplITrG2B5T74BE5-373" value="" style="shape=tableRow;horizontal=0;startSize=0;swimlaneHead=0;swimlaneBody=0;strokeColor=inherit;top=0;left=0;bottom=0;right=0;collapsible=0;dropTarget=0;fillColor=none;points=[[0,0.5],[1,0.5]];portConstraint=eastwest;fontFamily=宋体;fontSize=17;" parent="Vby_wplITrG2B5T74BE5-318" vertex="1">
          <mxGeometry y="60" width="80" height="10" as="geometry" />
        </mxCell>
        <mxCell id="Vby_wplITrG2B5T74BE5-374" value="" style="shape=partialRectangle;html=1;whiteSpace=wrap;connectable=0;strokeColor=inherit;overflow=hidden;fillColor=none;top=0;left=0;bottom=0;right=0;pointerEvents=1;fontFamily=宋体;fontSize=17;" parent="Vby_wplITrG2B5T74BE5-373" vertex="1">
          <mxGeometry width="10" height="10" as="geometry">
            <mxRectangle width="10" height="10" as="alternateBounds" />
          </mxGeometry>
        </mxCell>
        <mxCell id="Vby_wplITrG2B5T74BE5-375" value="" style="shape=partialRectangle;html=1;whiteSpace=wrap;connectable=0;strokeColor=inherit;overflow=hidden;fillColor=none;top=0;left=0;bottom=0;right=0;pointerEvents=1;fontFamily=宋体;fontSize=17;" parent="Vby_wplITrG2B5T74BE5-373" vertex="1">
          <mxGeometry x="10" width="10" height="10" as="geometry">
            <mxRectangle width="10" height="10" as="alternateBounds" />
          </mxGeometry>
        </mxCell>
        <mxCell id="Vby_wplITrG2B5T74BE5-376" value="" style="shape=partialRectangle;html=1;whiteSpace=wrap;connectable=0;strokeColor=inherit;overflow=hidden;fillColor=none;top=0;left=0;bottom=0;right=0;pointerEvents=1;fontFamily=宋体;fontSize=17;" parent="Vby_wplITrG2B5T74BE5-373" vertex="1">
          <mxGeometry x="20" width="10" height="10" as="geometry">
            <mxRectangle width="10" height="10" as="alternateBounds" />
          </mxGeometry>
        </mxCell>
        <mxCell id="Vby_wplITrG2B5T74BE5-377" value="" style="shape=partialRectangle;html=1;whiteSpace=wrap;connectable=0;strokeColor=inherit;overflow=hidden;fillColor=none;top=0;left=0;bottom=0;right=0;pointerEvents=1;fontFamily=宋体;fontSize=17;" parent="Vby_wplITrG2B5T74BE5-373" vertex="1">
          <mxGeometry x="30" width="10" height="10" as="geometry">
            <mxRectangle width="10" height="10" as="alternateBounds" />
          </mxGeometry>
        </mxCell>
        <mxCell id="Vby_wplITrG2B5T74BE5-378" value="" style="shape=partialRectangle;html=1;whiteSpace=wrap;connectable=0;strokeColor=inherit;overflow=hidden;fillColor=none;top=0;left=0;bottom=0;right=0;pointerEvents=1;fontFamily=宋体;fontSize=17;" parent="Vby_wplITrG2B5T74BE5-373" vertex="1">
          <mxGeometry x="40" width="10" height="10" as="geometry">
            <mxRectangle width="10" height="10" as="alternateBounds" />
          </mxGeometry>
        </mxCell>
        <mxCell id="Vby_wplITrG2B5T74BE5-379" value="" style="shape=partialRectangle;html=1;whiteSpace=wrap;connectable=0;strokeColor=inherit;overflow=hidden;fillColor=none;top=0;left=0;bottom=0;right=0;pointerEvents=1;fontFamily=宋体;fontSize=17;" parent="Vby_wplITrG2B5T74BE5-373" vertex="1">
          <mxGeometry x="50" width="10" height="10" as="geometry">
            <mxRectangle width="10" height="10" as="alternateBounds" />
          </mxGeometry>
        </mxCell>
        <mxCell id="Vby_wplITrG2B5T74BE5-380" value="" style="shape=partialRectangle;html=1;whiteSpace=wrap;connectable=0;strokeColor=inherit;overflow=hidden;fillColor=none;top=0;left=0;bottom=0;right=0;pointerEvents=1;fontFamily=宋体;fontSize=17;" parent="Vby_wplITrG2B5T74BE5-373" vertex="1">
          <mxGeometry x="60" width="10" height="10" as="geometry">
            <mxRectangle width="10" height="10" as="alternateBounds" />
          </mxGeometry>
        </mxCell>
        <mxCell id="Vby_wplITrG2B5T74BE5-381" value="" style="shape=partialRectangle;html=1;whiteSpace=wrap;connectable=0;strokeColor=inherit;overflow=hidden;fillColor=none;top=0;left=0;bottom=0;right=0;pointerEvents=1;fontFamily=宋体;fontSize=17;" parent="Vby_wplITrG2B5T74BE5-373" vertex="1">
          <mxGeometry x="70" width="10" height="10" as="geometry">
            <mxRectangle width="10" height="10" as="alternateBounds" />
          </mxGeometry>
        </mxCell>
        <mxCell id="Vby_wplITrG2B5T74BE5-382" value="" style="shape=tableRow;horizontal=0;startSize=0;swimlaneHead=0;swimlaneBody=0;strokeColor=inherit;top=0;left=0;bottom=0;right=0;collapsible=0;dropTarget=0;fillColor=none;points=[[0,0.5],[1,0.5]];portConstraint=eastwest;fontFamily=宋体;fontSize=17;" parent="Vby_wplITrG2B5T74BE5-318" vertex="1">
          <mxGeometry y="70" width="80" height="10" as="geometry" />
        </mxCell>
        <mxCell id="Vby_wplITrG2B5T74BE5-383" value="" style="shape=partialRectangle;html=1;whiteSpace=wrap;connectable=0;strokeColor=inherit;overflow=hidden;fillColor=none;top=0;left=0;bottom=0;right=0;pointerEvents=1;fontFamily=宋体;fontSize=17;" parent="Vby_wplITrG2B5T74BE5-382" vertex="1">
          <mxGeometry width="10" height="10" as="geometry">
            <mxRectangle width="10" height="10" as="alternateBounds" />
          </mxGeometry>
        </mxCell>
        <mxCell id="Vby_wplITrG2B5T74BE5-384" value="" style="shape=partialRectangle;html=1;whiteSpace=wrap;connectable=0;strokeColor=inherit;overflow=hidden;fillColor=none;top=0;left=0;bottom=0;right=0;pointerEvents=1;fontFamily=宋体;fontSize=17;" parent="Vby_wplITrG2B5T74BE5-382" vertex="1">
          <mxGeometry x="10" width="10" height="10" as="geometry">
            <mxRectangle width="10" height="10" as="alternateBounds" />
          </mxGeometry>
        </mxCell>
        <mxCell id="Vby_wplITrG2B5T74BE5-385" value="" style="shape=partialRectangle;html=1;whiteSpace=wrap;connectable=0;strokeColor=inherit;overflow=hidden;fillColor=none;top=0;left=0;bottom=0;right=0;pointerEvents=1;fontFamily=宋体;fontSize=17;" parent="Vby_wplITrG2B5T74BE5-382" vertex="1">
          <mxGeometry x="20" width="10" height="10" as="geometry">
            <mxRectangle width="10" height="10" as="alternateBounds" />
          </mxGeometry>
        </mxCell>
        <mxCell id="Vby_wplITrG2B5T74BE5-386" value="" style="shape=partialRectangle;html=1;whiteSpace=wrap;connectable=0;strokeColor=inherit;overflow=hidden;fillColor=none;top=0;left=0;bottom=0;right=0;pointerEvents=1;fontFamily=宋体;fontSize=17;" parent="Vby_wplITrG2B5T74BE5-382" vertex="1">
          <mxGeometry x="30" width="10" height="10" as="geometry">
            <mxRectangle width="10" height="10" as="alternateBounds" />
          </mxGeometry>
        </mxCell>
        <mxCell id="Vby_wplITrG2B5T74BE5-387" value="" style="shape=partialRectangle;html=1;whiteSpace=wrap;connectable=0;strokeColor=inherit;overflow=hidden;fillColor=none;top=0;left=0;bottom=0;right=0;pointerEvents=1;fontFamily=宋体;fontSize=17;" parent="Vby_wplITrG2B5T74BE5-382" vertex="1">
          <mxGeometry x="40" width="10" height="10" as="geometry">
            <mxRectangle width="10" height="10" as="alternateBounds" />
          </mxGeometry>
        </mxCell>
        <mxCell id="Vby_wplITrG2B5T74BE5-388" value="" style="shape=partialRectangle;html=1;whiteSpace=wrap;connectable=0;strokeColor=inherit;overflow=hidden;fillColor=none;top=0;left=0;bottom=0;right=0;pointerEvents=1;fontFamily=宋体;fontSize=17;" parent="Vby_wplITrG2B5T74BE5-382" vertex="1">
          <mxGeometry x="50" width="10" height="10" as="geometry">
            <mxRectangle width="10" height="10" as="alternateBounds" />
          </mxGeometry>
        </mxCell>
        <mxCell id="Vby_wplITrG2B5T74BE5-389" value="" style="shape=partialRectangle;html=1;whiteSpace=wrap;connectable=0;strokeColor=inherit;overflow=hidden;fillColor=none;top=0;left=0;bottom=0;right=0;pointerEvents=1;fontFamily=宋体;fontSize=17;" parent="Vby_wplITrG2B5T74BE5-382" vertex="1">
          <mxGeometry x="60" width="10" height="10" as="geometry">
            <mxRectangle width="10" height="10" as="alternateBounds" />
          </mxGeometry>
        </mxCell>
        <mxCell id="Vby_wplITrG2B5T74BE5-390" value="" style="shape=partialRectangle;html=1;whiteSpace=wrap;connectable=0;strokeColor=inherit;overflow=hidden;fillColor=none;top=0;left=0;bottom=0;right=0;pointerEvents=1;fontFamily=宋体;fontSize=17;" parent="Vby_wplITrG2B5T74BE5-382" vertex="1">
          <mxGeometry x="70" width="10" height="10" as="geometry">
            <mxRectangle width="10" height="10" as="alternateBounds" />
          </mxGeometry>
        </mxCell>
        <mxCell id="Vby_wplITrG2B5T74BE5-391" value="8&lt;font face=&quot;Helvetica&quot;&gt;X&lt;/font&gt;8数据单元" style="text;html=1;align=center;verticalAlign=middle;whiteSpace=wrap;rounded=0;fontFamily=宋体;fontSize=17;fontColor=default;labelBackgroundColor=default;" parent="Vby_wplITrG2B5T74BE5-314" vertex="1">
          <mxGeometry y="100" width="100" height="30" as="geometry" />
        </mxCell>
        <mxCell id="Vby_wplITrG2B5T74BE5-404" style="edgeStyle=orthogonalEdgeStyle;shape=connector;rounded=0;orthogonalLoop=1;jettySize=auto;html=1;entryX=0;entryY=0.75;entryDx=0;entryDy=0;strokeColor=default;align=center;verticalAlign=middle;fontFamily=宋体;fontSize=17;fontColor=default;labelBackgroundColor=default;endArrow=block;endFill=1;" parent="1" source="Vby_wplITrG2B5T74BE5-393" target="Vby_wplITrG2B5T74BE5-396" edge="1">
          <mxGeometry relative="1" as="geometry" />
        </mxCell>
        <mxCell id="Vby_wplITrG2B5T74BE5-393" value="色彩空间逆变换" style="whiteSpace=wrap;html=1;startSize=0;fontFamily=宋体;fontSize=17;" parent="1" vertex="1">
          <mxGeometry x="600" y="710" width="120" height="40" as="geometry" />
        </mxCell>
        <mxCell id="Vby_wplITrG2B5T74BE5-394" value="" style="edgeStyle=orthogonalEdgeStyle;shape=connector;rounded=0;orthogonalLoop=1;jettySize=auto;html=1;strokeColor=default;align=center;verticalAlign=middle;fontFamily=宋体;fontSize=17;fontColor=default;labelBackgroundColor=default;endArrow=block;endFill=1;" parent="1" source="Vby_wplITrG2B5T74BE5-318" target="Vby_wplITrG2B5T74BE5-393" edge="1">
          <mxGeometry relative="1" as="geometry">
            <Array as="points">
              <mxPoint x="570" y="730" />
              <mxPoint x="570" y="730" />
            </Array>
          </mxGeometry>
        </mxCell>
        <mxCell id="Vby_wplITrG2B5T74BE5-395" value="" style="group;movable=1;resizable=1;rotatable=1;deletable=1;editable=1;locked=0;connectable=1;fontFamily=宋体;fontSize=14;" parent="1" vertex="1" connectable="0">
          <mxGeometry x="760" y="670" width="100" height="100" as="geometry" />
        </mxCell>
        <mxCell id="Vby_wplITrG2B5T74BE5-396" value="" style="whiteSpace=wrap;html=1;aspect=fixed;align=left;movable=1;resizable=1;rotatable=1;deletable=1;editable=1;locked=0;connectable=1;fontFamily=宋体;fontSize=17;" parent="Vby_wplITrG2B5T74BE5-395" vertex="1">
          <mxGeometry width="80" height="80" as="geometry" />
        </mxCell>
        <mxCell id="Vby_wplITrG2B5T74BE5-397" value="&lt;font style=&quot;font-size: 14px;&quot;&gt;R&lt;/font&gt;" style="text;html=1;align=center;verticalAlign=middle;whiteSpace=wrap;rounded=0;movable=1;resizable=1;rotatable=1;deletable=1;editable=1;locked=0;connectable=1;fontFamily=Helvetica;fontSize=14;" parent="Vby_wplITrG2B5T74BE5-395" vertex="1">
          <mxGeometry width="10" height="10" as="geometry" />
        </mxCell>
        <mxCell id="Vby_wplITrG2B5T74BE5-398" value="" style="group;movable=1;resizable=1;rotatable=1;deletable=1;editable=1;locked=0;connectable=1;fontFamily=宋体;fontSize=14;" parent="Vby_wplITrG2B5T74BE5-395" vertex="1" connectable="0">
          <mxGeometry x="10" y="10" width="90" height="90" as="geometry" />
        </mxCell>
        <mxCell id="Vby_wplITrG2B5T74BE5-399" value="" style="whiteSpace=wrap;html=1;aspect=fixed;align=left;movable=1;resizable=1;rotatable=1;deletable=1;editable=1;locked=0;connectable=1;fontFamily=宋体;fontSize=17;" parent="Vby_wplITrG2B5T74BE5-398" vertex="1">
          <mxGeometry width="80" height="80" as="geometry" />
        </mxCell>
        <mxCell id="Vby_wplITrG2B5T74BE5-400" value="&lt;span style=&quot;font-size: 14px;&quot;&gt;G&lt;/span&gt;" style="text;html=1;align=center;verticalAlign=middle;whiteSpace=wrap;rounded=0;movable=1;resizable=1;rotatable=1;deletable=1;editable=1;locked=0;connectable=1;fontFamily=Helvetica;fontSize=14;" parent="Vby_wplITrG2B5T74BE5-398" vertex="1">
          <mxGeometry width="10" height="10" as="geometry" />
        </mxCell>
        <mxCell id="Vby_wplITrG2B5T74BE5-401" value="" style="group;movable=1;resizable=1;rotatable=1;deletable=1;editable=1;locked=0;connectable=1;fontFamily=宋体;fontSize=14;" parent="Vby_wplITrG2B5T74BE5-398" vertex="1" connectable="0">
          <mxGeometry x="10" y="10" width="80" height="80" as="geometry" />
        </mxCell>
        <mxCell id="Vby_wplITrG2B5T74BE5-402" value="" style="whiteSpace=wrap;html=1;aspect=fixed;align=left;movable=1;resizable=1;rotatable=1;deletable=1;editable=1;locked=0;connectable=1;fontFamily=宋体;fontSize=17;" parent="Vby_wplITrG2B5T74BE5-401" vertex="1">
          <mxGeometry width="80" height="80" as="geometry" />
        </mxCell>
        <mxCell id="Vby_wplITrG2B5T74BE5-403" value="&lt;span style=&quot;font-size: 14px;&quot;&gt;B&lt;/span&gt;" style="text;html=1;align=center;verticalAlign=middle;whiteSpace=wrap;rounded=0;movable=1;resizable=1;rotatable=1;deletable=1;editable=1;locked=0;connectable=1;fontFamily=Helvetica;fontSize=14;" parent="Vby_wplITrG2B5T74BE5-401" vertex="1">
          <mxGeometry width="10" height="10" as="geometry" />
        </mxCell>
        <mxCell id="Vby_wplITrG2B5T74BE5-407" value="JPEG编码" style="text;html=1;align=center;verticalAlign=middle;whiteSpace=wrap;rounded=0;fontFamily=宋体;fontSize=17;fontColor=default;labelBackgroundColor=default;" parent="1" vertex="1">
          <mxGeometry x="160" y="440" width="80" height="30" as="geometry" />
        </mxCell>
        <mxCell id="Vby_wplITrG2B5T74BE5-408" value="JPEG解码" style="text;html=1;align=center;verticalAlign=middle;whiteSpace=wrap;rounded=0;fontFamily=宋体;fontSize=17;fontColor=default;labelBackgroundColor=default;" parent="1" vertex="1">
          <mxGeometry x="120" y="810" width="80" height="30" as="geometry" />
        </mxCell>
        <mxCell id="Vby_wplITrG2B5T74BE5-409" value="图像数据" style="text;html=1;align=center;verticalAlign=middle;whiteSpace=wrap;rounded=0;fontFamily=宋体;fontSize=17;fontColor=default;labelBackgroundColor=default;" parent="1" vertex="1">
          <mxGeometry x="180" y="310" width="100" height="30" as="geometry" />
        </mxCell>
        <mxCell id="Vby_wplITrG2B5T74BE5-410" value="图像数据" style="text;html=1;align=center;verticalAlign=middle;whiteSpace=wrap;rounded=0;fontFamily=宋体;fontSize=17;fontColor=default;labelBackgroundColor=default;" parent="1" vertex="1">
          <mxGeometry x="760" y="770" width="100" height="30" as="geometry" />
        </mxCell>
        <mxCell id="l6YxhsuJ442XK4JiuoYg-1" value="JPEG格式生成" style="rounded=0;whiteSpace=wrap;html=1;fontFamily=宋体;fontSize=17;fontColor=default;labelBackgroundColor=default;" vertex="1" parent="1">
          <mxGeometry x="460" y="360" width="120" height="40" as="geometry" />
        </mxCell>
        <mxCell id="l6YxhsuJ442XK4JiuoYg-5" style="edgeStyle=orthogonalEdgeStyle;rounded=0;orthogonalLoop=1;jettySize=auto;html=1;entryX=1;entryY=0.5;entryDx=0;entryDy=0;" edge="1" parent="1" source="l6YxhsuJ442XK4JiuoYg-4" target="Vby_wplITrG2B5T74BE5-149">
          <mxGeometry relative="1" as="geometry" />
        </mxCell>
        <mxCell id="l6YxhsuJ442XK4JiuoYg-4" value="JPEG格式解析" style="whiteSpace=wrap;html=1;fontSize=17;labelBackgroundColor=default;fontFamily=宋体;" vertex="1" parent="1">
          <mxGeometry x="460" y="590" width="120" height="40" as="geometry" />
        </mxCell>
        <mxCell id="l6YxhsuJ442XK4JiuoYg-6" style="edgeStyle=orthogonalEdgeStyle;rounded=0;orthogonalLoop=1;jettySize=auto;html=1;entryX=0.5;entryY=0;entryDx=0;entryDy=0;entryPerimeter=0;" edge="1" parent="1" source="l6YxhsuJ442XK4JiuoYg-1" target="Vby_wplITrG2B5T74BE5-147">
          <mxGeometry relative="1" as="geometry" />
        </mxCell>
      </root>
    </mxGraphModel>
  </diagram>
</mxfile>
